<svg xmlns="http://www.w3.org/2000/svg" width="36.304" height="36.305" viewBox="0 0 36.304 36.305">
  <g id="noun-advance-analytics-3630449" transform="translate(-1 -1)">
    <g id="Group_16420" data-name="Group 16420" transform="translate(1 1)">
      <path id="Path_11100" data-name="Path 11100" d="M42.027,35a7.027,7.027,0,1,0,7.027,7.027A7.034,7.034,0,0,0,42.027,35Zm0,12.882a5.855,5.855,0,1,1,5.855-5.855A5.862,5.862,0,0,1,42.027,47.882Z" transform="translate(-15.092 -15.092)" fill="#f60"/>
      <path id="Path_11101" data-name="Path 11101" d="M34.413,21.184a4.054,4.054,0,0,0,.548-2.032,4.1,4.1,0,0,0-5.122-3.969,5.889,5.889,0,0,0-3.076-3.143V6.855H22.08V9.311a8.084,8.084,0,0,0-1.171-.993V3.342H16.224V6.855a8.315,8.315,0,0,0-1.171.088V1H10.369V9.31A8.151,8.151,0,0,0,9.2,10.834V5.684H4.513v8.99a5.265,5.265,0,0,0,4.1,8.576H19.834a9.3,9.3,0,0,0-.959,2.342H16.81a1.747,1.747,0,0,0-.653.129,1.753,1.753,0,0,0-1.689-1.3H4.513a3.513,3.513,0,1,0,0,7.027h9.954a1.753,1.753,0,0,0,1.689-1.3,1.747,1.747,0,0,0,.653.129h2.065a9.362,9.362,0,1,0,15.539-9.093ZM25.593,8.027v3.637a5.468,5.468,0,0,0-1.938-.067,8.222,8.222,0,0,0-.4-.767v-2.8ZM17.4,4.513h2.342V7.639a8.182,8.182,0,0,0-2.342-.7ZM11.54,2.171h2.342V7.2A8.136,8.136,0,0,0,11.54,8.325ZM8.027,6.855v5.893a5.238,5.238,0,0,0-2.342.858V6.855ZM8.612,22.08a4.1,4.1,0,1,1,0-8.2c.032,0,.062,0,.093,0l.575.027.111-.473a7.022,7.022,0,0,1,13.1-1.567A5.86,5.86,0,0,0,18.566,17.4h1.171a4.683,4.683,0,0,1,9.179-1.309l.185.635.608-.261A2.92,2.92,0,0,1,33.5,20.414,9.325,9.325,0,0,0,20.633,22.08Zm6.441,7.612a.587.587,0,0,1-.586.586H4.513a2.342,2.342,0,0,1,0-4.684h9.954a.587.587,0,0,1,.586.586v3.513Zm1.757-.586a.587.587,0,0,1-.586-.586V27.349a.587.587,0,0,1,.586-.586h1.838a8.466,8.466,0,0,0,0,2.342Zm11.125,7.027a8.2,8.2,0,1,1,8.2-8.2A8.207,8.207,0,0,1,27.935,36.133Z" transform="translate(-1 -1)" fill="#f60"/>
      <path id="Path_11102" data-name="Path 11102" d="M17.248,19.555l1.142.259a4.657,4.657,0,0,1,4.568-3.643A4.734,4.734,0,0,1,24,16.287l.259-1.142a5.862,5.862,0,0,0-7.011,4.41Z" transform="translate(-7.734 -6.802)" fill="#f60"/>
      <rect id="Rectangle_17344" data-name="Rectangle 17344" width="1" height="1" transform="translate(28 2)" fill="#f60"/>
      <rect id="Rectangle_17345" data-name="Rectangle 17345" width="6" height="1" transform="translate(30 2)" fill="#f60"/>
      <rect id="Rectangle_17346" data-name="Rectangle 17346" width="1" height="1" transform="translate(28 4)" fill="#f60"/>
      <rect id="Rectangle_17347" data-name="Rectangle 17347" width="6" height="1" transform="translate(30 4)" fill="#f60"/>
      <rect id="Rectangle_17348" data-name="Rectangle 17348" width="1" height="2" transform="translate(28 6)" fill="#f60"/>
      <rect id="Rectangle_17349" data-name="Rectangle 17349" width="6" height="2" transform="translate(30 6)" fill="#f60"/>
      <rect id="Rectangle_17350" data-name="Rectangle 17350" width="1" height="1" transform="translate(28 9)" fill="#f60"/>
      <rect id="Rectangle_17351" data-name="Rectangle 17351" width="6" height="1" transform="translate(30 9)" fill="#f60"/>
    </g>
  </g>
</svg>
