<svg xmlns="http://www.w3.org/2000/svg" width="52.87" height="58.809" viewBox="0 0 52.87 58.809">
  <path id="Path_11123" data-name="Path 11123" d="M46.259,38.032l1.587-3.115-4.47-4.47-3.115,1.587a16.139,16.139,0,0,0-3.874-1.606l-1.08-3.323H28.987L27.9,30.429a16.134,16.134,0,0,0-3.873,1.606l-3.115-1.587-4.47,4.47,1.587,3.115a16.159,16.159,0,0,0-1.605,3.873l-3.323,1.08v6.321l3.322,1.08a16.139,16.139,0,0,0,1.606,3.874l-1.587,3.114,4.47,4.47,3.115-1.587a16.1,16.1,0,0,0,3.875,1.606l1.078,3.323h6.321l1.079-3.323a16.116,16.116,0,0,0,3.874-1.606l3.115,1.587,4.47-4.47L46.259,54.26a16.153,16.153,0,0,0,1.606-3.874l3.322-1.08V42.986l-3.322-1.08a16.164,16.164,0,0,0-1.606-3.874Zm2.8,9.732-2.987.97-.134.587a14.036,14.036,0,0,1-1.8,4.334l-.32.51,1.43,2.8-2.288,2.288-2.8-1.43-.511.32a14.049,14.049,0,0,1-4.337,1.8l-.586.134-.97,2.987H30.529l-.972-2.988-.586-.134a14.014,14.014,0,0,1-4.332-1.8l-.511-.32-2.8,1.43-2.288-2.288,1.43-2.8-.32-.51a14.027,14.027,0,0,1-1.8-4.332l-.135-.586-2.991-.974V44.528l2.988-.972.134-.586a14.059,14.059,0,0,1,1.8-4.329l.319-.509-1.43-2.8,2.288-2.288,2.8,1.43.51-.32a14.031,14.031,0,0,1,4.337-1.8l.587-.134.971-2.986h3.237l.97,2.988.586.134a14.031,14.031,0,0,1,4.332,1.8l.511.32,2.8-1.43,2.288,2.288-1.43,2.8.32.51a14.038,14.038,0,0,1,1.8,4.332l.134.585,2.987.972ZM32.146,36.458a9.688,9.688,0,1,0,9.687,9.688A9.688,9.688,0,0,0,32.146,36.458Zm0,17.253a7.566,7.566,0,1,1,7.564-7.564A7.566,7.566,0,0,1,32.146,53.712Zm.325-32.1-.9,1.775,2.926,2.924,1.773-.9A9.223,9.223,0,0,0,38,26.118l.616,1.892h4.135l.616-1.892A9.26,9.26,0,0,0,45.1,25.4l1.774.9,2.924-2.924-.9-1.774a9.25,9.25,0,0,0,.715-1.732l1.895-.613V15.126l-1.893-.616a9.2,9.2,0,0,0-.715-1.73l.9-1.775L46.87,8.082l-1.775.9a9.2,9.2,0,0,0-1.731-.715l-.615-1.893H38.613L38,8.27a9.209,9.209,0,0,0-1.73.715l-1.774-.9-2.926,2.924.9,1.775a9.278,9.278,0,0,0-.715,1.73l-1.893.616v4.138l1.893.615a9.322,9.322,0,0,0,.716,1.73Zm-.488-4.94,1.548-.5.134-.586a7.123,7.123,0,0,1,.913-2.2l.32-.51-.74-1.452.744-.744,1.449.741.511-.32a7.143,7.143,0,0,1,2.2-.91l.586-.134.5-1.548H41.2l.5,1.548.587.134a7.12,7.12,0,0,1,2.2.913l.511.32,1.449-.741.744.744-.74,1.452.32.51a7.122,7.122,0,0,1,.912,2.2l.134.586,1.548.5v1.052l-1.548.5-.134.587a7.109,7.109,0,0,1-.912,2.2l-.32.511.74,1.45-.744.744-1.447-.738L44.5,23.3a7.173,7.173,0,0,1-2.2.913l-.586.135-.5,1.546H40.154l-.5-1.547-.587-.134a7.146,7.146,0,0,1-2.2-.913l-.509-.319-1.451.738-.744-.744.741-1.45-.32-.511a7.154,7.154,0,0,1-.915-2.2l-.134-.586-1.547-.5Zm8.7,6.27a5.744,5.744,0,1,0-5.743-5.743A5.744,5.744,0,0,0,40.682,22.937Zm0-9.367a3.621,3.621,0,1,1-3.621,3.621,3.621,3.621,0,0,1,3.621-3.621ZM14.482,26.4a1.061,1.061,0,0,0,1.061,1.061H21.13A1.061,1.061,0,0,0,22.192,26.4V17.369h2.892a1.062,1.062,0,0,0,.693-1.865L19.029,9.695a1.06,1.06,0,0,0-1.385,0L10.9,15.5a1.061,1.061,0,0,0,.693,1.865h2.892ZM14.45,15.247,18.337,11.9l3.887,3.348H21.13a1.061,1.061,0,0,0-1.061,1.061v9.034H16.605V16.308a1.061,1.061,0,0,0-1.062-1.061ZM63.332,36.1a1.063,1.063,0,0,0-1-.692H59.445V26.377a1.062,1.062,0,0,0-1.061-1.062H52.8a1.061,1.061,0,0,0-1.061,1.062v9.031H48.844a1.062,1.062,0,0,0-.693,1.866l6.747,5.81a1.06,1.06,0,0,0,1.385,0l6.746-5.81A1.063,1.063,0,0,0,63.332,36.1Zm-7.741,4.778L51.7,37.532H52.8a1.06,1.06,0,0,0,1.061-1.061V27.439h3.464v9.032a1.061,1.061,0,0,0,1.062,1.061h1.093Z" transform="translate(-10.529 -6.377)" fill="#f60"/>
</svg>
