<svg xmlns="http://www.w3.org/2000/svg" width="91.994" height="88.857" viewBox="0 0 91.994 88.857">
  <g id="noun-process-5825290" transform="translate(-4.002 -5.572)">
    <path id="Path_11122" data-name="Path 11122" d="M56.16,64.157l-2.717-3.922a23.591,23.591,0,0,0,2.288-5.519l4.693-.852A1.3,1.3,0,0,0,61.5,52.581v-8.3A1.3,1.3,0,0,0,60.424,43l-4.694-.852a23.637,23.637,0,0,0-2.288-5.518L56.16,32.7a1.3,1.3,0,0,0-.15-1.664l-5.87-5.871a1.3,1.3,0,0,0-1.664-.15l-3.923,2.718a23.619,23.619,0,0,0-5.518-2.288l-.852-4.693A1.3,1.3,0,0,0,36.9,19.684H28.6a1.3,1.3,0,0,0-1.283,1.071l-.852,4.693a23.615,23.615,0,0,0-5.518,2.289l-3.924-2.718a1.3,1.3,0,0,0-1.664.15l-5.87,5.87a1.3,1.3,0,0,0-.15,1.664l2.717,3.923a23.591,23.591,0,0,0-2.288,5.519L5.073,43A1.3,1.3,0,0,0,4,44.28v8.3a1.3,1.3,0,0,0,1.071,1.283l4.693.852a23.672,23.672,0,0,0,2.288,5.518L9.336,64.158a1.3,1.3,0,0,0,.15,1.664l5.87,5.87a1.3,1.3,0,0,0,1.664.15l3.923-2.717a23.591,23.591,0,0,0,5.519,2.288l.852,4.693A1.3,1.3,0,0,0,28.6,77.177h8.3a1.3,1.3,0,0,0,1.283-1.071l.852-4.693a23.654,23.654,0,0,0,5.518-2.288l3.924,2.718a1.3,1.3,0,0,0,1.664-.15l5.87-5.87A1.307,1.307,0,0,0,56.16,64.157ZM50.822,61.03,53.4,64.747l-4.331,4.331L45.348,66.5a1.3,1.3,0,0,0-1.43-.036A21.03,21.03,0,0,1,37.6,69.084a1.3,1.3,0,0,0-.985,1.036l-.807,4.447H29.687L28.88,70.12a1.3,1.3,0,0,0-.985-1.036,21.034,21.034,0,0,1-6.315-2.618,1.3,1.3,0,0,0-1.43.036l-3.717,2.575L12.1,64.746l2.576-3.718a1.3,1.3,0,0,0,.036-1.43A21.041,21.041,0,0,1,12.1,53.284,1.3,1.3,0,0,0,11.06,52.3l-4.447-.807V45.367l4.447-.807a1.3,1.3,0,0,0,1.036-.985,21.034,21.034,0,0,1,2.618-6.315,1.3,1.3,0,0,0-.036-1.43L12.1,32.113l4.331-4.331,3.718,2.576a1.3,1.3,0,0,0,1.43.036A21.03,21.03,0,0,1,27.9,27.776a1.3,1.3,0,0,0,.986-1.036l.807-4.447h6.126l.807,4.447a1.3,1.3,0,0,0,.985,1.036,21.06,21.06,0,0,1,6.314,2.618,1.3,1.3,0,0,0,1.43-.036l3.718-2.576L53.4,32.113l-2.576,3.718a1.3,1.3,0,0,0-.036,1.43,21.06,21.06,0,0,1,2.618,6.314,1.3,1.3,0,0,0,1.037.985l4.448.807v6.125l-4.45.808a1.3,1.3,0,0,0-1.036.985A21.034,21.034,0,0,1,50.787,59.6,1.3,1.3,0,0,0,50.822,61.03Zm-18.073-25.4a12.8,12.8,0,1,0,12.8,12.8A12.815,12.815,0,0,0,32.749,35.629Zm0,23A10.194,10.194,0,1,1,42.943,48.431,10.206,10.206,0,0,1,32.749,58.625ZM94.926,69.669l-3.055-.554A16.99,16.99,0,0,0,90.415,65.6l1.769-2.554a1.3,1.3,0,0,0-.15-1.664l-4.12-4.12a1.3,1.3,0,0,0-1.664-.15L83.7,58.884a16.994,16.994,0,0,0-3.512-1.457l-.555-3.055A1.3,1.3,0,0,0,78.346,53.3H72.52a1.3,1.3,0,0,0-1.283,1.071l-.554,3.055a16.939,16.939,0,0,0-3.512,1.457l-2.554-1.769a1.3,1.3,0,0,0-1.664.15l-4.12,4.12a1.3,1.3,0,0,0-.15,1.664L60.451,65.6a16.976,16.976,0,0,0-1.456,3.513l-3.054.554a1.3,1.3,0,0,0-1.071,1.283v5.826a1.3,1.3,0,0,0,1.071,1.283L59,78.615a16.99,16.99,0,0,0,1.456,3.512l-1.769,2.554a1.3,1.3,0,0,0,.15,1.664l4.12,4.12a1.3,1.3,0,0,0,1.664.15l2.553-1.768A17.035,17.035,0,0,0,70.683,90.3l.554,3.054a1.3,1.3,0,0,0,1.283,1.071h5.826a1.3,1.3,0,0,0,1.283-1.071l.554-3.055a16.961,16.961,0,0,0,3.512-1.457l2.554,1.769a1.3,1.3,0,0,0,1.664-.15l4.12-4.12a1.3,1.3,0,0,0,.15-1.664l-1.768-2.553a16.922,16.922,0,0,0,1.456-3.513l3.054-.554A1.3,1.3,0,0,0,96,76.778V70.952A1.3,1.3,0,0,0,94.926,69.669ZM93.389,75.69l-2.8.508a1.3,1.3,0,0,0-1.036.985A14.38,14.38,0,0,1,87.763,81.5a1.3,1.3,0,0,0,.036,1.43l1.622,2.342L86.84,87.851,84.5,86.228a1.3,1.3,0,0,0-1.43-.036,14.391,14.391,0,0,1-4.314,1.789,1.3,1.3,0,0,0-.985,1.036l-.508,2.8H73.61l-.508-2.8a1.3,1.3,0,0,0-.985-1.036A14.406,14.406,0,0,1,67.8,86.193a1.3,1.3,0,0,0-1.43.036L64.03,87.851,61.449,85.27l1.623-2.343a1.3,1.3,0,0,0,.036-1.43,14.386,14.386,0,0,1-1.789-4.315,1.3,1.3,0,0,0-1.037-.985l-2.8-.508v-3.65l2.8-.508a1.3,1.3,0,0,0,1.036-.985,14.406,14.406,0,0,1,1.789-4.315,1.3,1.3,0,0,0-.036-1.43l-1.622-2.342,2.581-2.581L66.372,61.5a1.3,1.3,0,0,0,1.43.036,14.4,14.4,0,0,1,4.315-1.789,1.3,1.3,0,0,0,.985-1.036l.509-2.8h3.65l.509,2.8a1.3,1.3,0,0,0,.985,1.036,14.386,14.386,0,0,1,4.315,1.789A1.3,1.3,0,0,0,84.5,61.5l2.343-1.623,2.581,2.581L87.8,64.8a1.3,1.3,0,0,0-.036,1.43,14.391,14.391,0,0,1,1.789,4.314,1.3,1.3,0,0,0,1.036.985l2.8.509v3.65Zm-17.955-11.2a9.373,9.373,0,1,0,9.373,9.373A9.382,9.382,0,0,0,75.434,64.492Zm0,16.138A6.765,6.765,0,1,1,82.2,73.865,6.773,6.773,0,0,1,75.434,80.63ZM58.22,27.709l2.6.472a15.037,15.037,0,0,0,1.225,2.952l-1.506,2.173a1.3,1.3,0,0,0,.15,1.664L64.322,38.6a1.3,1.3,0,0,0,1.664.15l2.173-1.505a15.143,15.143,0,0,0,2.953,1.225l.472,2.6a1.3,1.3,0,0,0,1.283,1.071H78a1.3,1.3,0,0,0,1.283-1.071l.472-2.6a15.129,15.129,0,0,0,2.953-1.224l2.173,1.506a1.3,1.3,0,0,0,1.664-.15l3.632-3.633a1.3,1.3,0,0,0,.15-1.664l-1.5-2.172a15.143,15.143,0,0,0,1.225-2.953l2.6-.472a1.3,1.3,0,0,0,1.071-1.283V21.29a1.3,1.3,0,0,0-1.071-1.283l-2.6-.472a15.156,15.156,0,0,0-1.224-2.952l1.506-2.174a1.3,1.3,0,0,0-.15-1.664L86.549,9.112a1.3,1.3,0,0,0-1.664-.15l-2.173,1.505a15.078,15.078,0,0,0-2.953-1.224l-.472-2.6A1.3,1.3,0,0,0,78,5.572H72.867a1.3,1.3,0,0,0-1.283,1.071l-.472,2.6a15.037,15.037,0,0,0-2.952,1.225L65.987,8.962a1.3,1.3,0,0,0-1.664.15L60.69,12.745a1.3,1.3,0,0,0-.15,1.664l1.505,2.173a15.143,15.143,0,0,0-1.225,2.953l-2.6.472A1.3,1.3,0,0,0,57.15,21.29v5.137A1.3,1.3,0,0,0,58.22,27.709Zm1.537-5.332,2.343-.425a1.3,1.3,0,0,0,1.036-.985,12.522,12.522,0,0,1,1.559-3.759,1.3,1.3,0,0,0-.036-1.43L63.3,13.819,65.4,11.725l1.96,1.358a1.3,1.3,0,0,0,1.43.036,12.538,12.538,0,0,1,3.758-1.559,1.3,1.3,0,0,0,.985-1.036l.425-2.344h2.961l.425,2.344a1.3,1.3,0,0,0,.985,1.036,12.517,12.517,0,0,1,3.758,1.559,1.3,1.3,0,0,0,1.43-.036l1.96-1.358,2.094,2.094-1.358,1.96a1.3,1.3,0,0,0-.036,1.43,12.525,12.525,0,0,1,1.558,3.758,1.3,1.3,0,0,0,1.036.985l2.344.426v2.961l-2.343.425a1.3,1.3,0,0,0-1.036.985,12.537,12.537,0,0,1-1.559,3.759,1.3,1.3,0,0,0,.036,1.43L87.566,33.9l-2.094,2.094-1.96-1.358a1.3,1.3,0,0,0-1.43-.036,12.525,12.525,0,0,1-3.758,1.558,1.3,1.3,0,0,0-.985,1.036l-.425,2.344H73.953l-.425-2.343a1.3,1.3,0,0,0-.985-1.036A12.537,12.537,0,0,1,68.784,34.6a1.3,1.3,0,0,0-1.43.036L65.395,35.99,63.3,33.9l1.358-1.96a1.3,1.3,0,0,0,.036-1.43,12.51,12.51,0,0,1-1.558-3.758,1.3,1.3,0,0,0-1.037-.986l-2.344-.425v-2.96Zm15.677,9.9a8.418,8.418,0,1,0-8.418-8.418A8.428,8.428,0,0,0,75.434,32.276Zm0-14.229a5.811,5.811,0,1,1-5.811,5.811A5.818,5.818,0,0,1,75.434,18.047Z" fill="#f60"/>
  </g>
</svg>
