<svg xmlns="http://www.w3.org/2000/svg" width="95.162" height="90.502" viewBox="0 0 95.162 90.502">
  <g id="Group_16431" data-name="Group 16431" transform="translate(-2.348 -4.8)">
    <path id="Path_11128" data-name="Path 11128" d="M28.2,75.3l-5.8-.5-2.2-5.3a3.51,3.51,0,0,0-3.3-2.2,3.723,3.723,0,0,0-3.3,2.2l-2.2,5.3-5.8.5a3.7,3.7,0,0,0-3.1,2.4,3.652,3.652,0,0,0,1.1,3.8L8,85.3,6.7,90.9a3.6,3.6,0,0,0,1.4,3.7,3.48,3.48,0,0,0,3.9.2l4.9-3,4.9,3a4.075,4.075,0,0,0,1.8.5,3.322,3.322,0,0,0,2.1-.7,3.532,3.532,0,0,0,1.4-3.7l-1.3-5.6,4.4-3.8a3.6,3.6,0,0,0,1.1-3.8A3.7,3.7,0,0,0,28.2,75.3Zm-5.1,7.1A3.554,3.554,0,0,0,22,85.9l1.2,5-4.4-2.7a4.075,4.075,0,0,0-1.8-.5,3.743,3.743,0,0,0-1.8.5l-4.4,2.7,1.2-5a3.554,3.554,0,0,0-1.1-3.5L7,79.1l5.1-.4a3.472,3.472,0,0,0,3-2.2l2-4.7,2,4.7a3.7,3.7,0,0,0,3,2.2l5.1.4Z" fill="#f60"/>
    <path id="Path_11129" data-name="Path 11129" d="M61.2,75.3l-5.8-.5-2.2-5.3a3.51,3.51,0,0,0-3.3-2.2,3.723,3.723,0,0,0-3.3,2.2l-2.2,5.3-5.8.5a3.7,3.7,0,0,0-3.1,2.4,3.652,3.652,0,0,0,1.1,3.8L41,85.3l-1.3,5.6a3.6,3.6,0,0,0,1.4,3.7,3.674,3.674,0,0,0,3.9.2l4.9-3,4.9,3a4.075,4.075,0,0,0,1.8.5,3.322,3.322,0,0,0,2.1-.7,3.532,3.532,0,0,0,1.4-3.7l-1.3-5.6,4.4-3.8a3.6,3.6,0,0,0,1.1-3.8A3.461,3.461,0,0,0,61.2,75.3Zm-5.1,7.1A3.554,3.554,0,0,0,55,85.9l1.2,5-4.4-2.7a3.521,3.521,0,0,0-3.7,0l-4.4,2.7,1.2-5a3.554,3.554,0,0,0-1.1-3.5L40,79.1l5.1-.4a3.472,3.472,0,0,0,3-2.2l2-4.7,2,4.7a3.7,3.7,0,0,0,3,2.2l5.1.4Z" fill="#f60"/>
    <path id="Path_11130" data-name="Path 11130" d="M97.3,77.7a3.33,3.33,0,0,0-3.1-2.4l-5.8-.5-2.2-5.3a3.51,3.51,0,0,0-3.3-2.2,3.723,3.723,0,0,0-3.3,2.2l-2.2,5.3-5.8.5a3.7,3.7,0,0,0-3.1,2.4,3.652,3.652,0,0,0,1.1,3.8L74,85.3l-1.3,5.6a3.6,3.6,0,0,0,1.4,3.7,3.674,3.674,0,0,0,3.9.2l4.9-3,4.9,3a4.075,4.075,0,0,0,1.8.5,3.322,3.322,0,0,0,2.1-.7,3.532,3.532,0,0,0,1.4-3.7l-1.3-5.6,4.4-3.8A3.276,3.276,0,0,0,97.3,77.7Zm-8.1,4.7a3.554,3.554,0,0,0-1.1,3.5l1.2,5-4.4-2.7a3.521,3.521,0,0,0-3.7,0l-4.4,2.7,1.2-5a3.554,3.554,0,0,0-1.1-3.5L73,79.1l5.1-.4a3.472,3.472,0,0,0,3-2.2l2-4.7,2,4.7a3.7,3.7,0,0,0,3,2.2l5.1.4Z" fill="#f60"/>
    <path id="Path_11131" data-name="Path 11131" d="M28.2,63.8H71.9A5.8,5.8,0,0,0,77.7,58V50.5a5.98,5.98,0,0,0-2.2-4.6h0C69.4,40.9,60.1,38,50,38s-19.3,2.9-25.5,7.9a5.831,5.831,0,0,0-2.2,4.6V58A5.826,5.826,0,0,0,28.2,63.8ZM26.5,50.5a1.746,1.746,0,0,1,.7-1.4C32.5,44.8,41,42.2,50,42.2s17.5,2.6,22.8,6.9a1.91,1.91,0,0,1,.7,1.4V58a1.752,1.752,0,0,1-1.7,1.7H28.2A1.752,1.752,0,0,1,26.5,58Z" fill="#f60"/>
    <path id="Path_11132" data-name="Path 11132" d="M50,36A15.6,15.6,0,1,0,34.4,20.4,15.62,15.62,0,0,0,50,36ZM50,8.9A11.45,11.45,0,1,1,38.6,20.4,11.395,11.395,0,0,1,50,8.9Z" fill="#f60"/>
  </g>
</svg>
