<svg xmlns="http://www.w3.org/2000/svg" width="32.955" height="36.76" viewBox="0 0 32.955 36.76">
  <g id="noun-cloud-computing-1231602" transform="translate(-8 -3.199)">
    <g id="Group_16419" data-name="Group 16419" transform="translate(8 3.2)">
      <path id="Path_11089" data-name="Path 11089" d="M34.953,10.929a9.682,9.682,0,0,0-2.982-5.139A9.817,9.817,0,0,0,25.3,3.2a9.961,9.961,0,0,0-5.336,1.569,9.754,9.754,0,0,0-2.9,2.9A5.765,5.765,0,0,0,10.746,13.4c0,.235.039.471.039.667A7.7,7.7,0,0,0,8,19.991a7.967,7.967,0,0,0,2.119,5.414A7.447,7.447,0,0,0,15.3,27.995H19.1V26.425H15.336a5.847,5.847,0,0,1-4.08-2.079,6.453,6.453,0,0,1-1.687-4.355,6.114,6.114,0,0,1,2.511-4.943.853.853,0,0,0,.314-.785,6.415,6.415,0,0,1-.078-.863,4.222,4.222,0,0,1,4.943-4.159.857.857,0,0,0,.824-.392A8.476,8.476,0,0,1,20.79,6.025,8.317,8.317,0,0,1,25.3,4.691a8.278,8.278,0,0,1,8.2,6.9.8.8,0,0,0,.588.628,7.287,7.287,0,0,1,3.374,11.887,6.781,6.781,0,0,1-4.629,2.315H29.852v1.569h3.021c.039,0,.039,0,.078.039a8.545,8.545,0,0,0,5.689-2.825,8.79,8.79,0,0,0-3.688-14.281Z" transform="translate(-8 -3.2)" fill="#f60"/>
      <path id="Path_11090" data-name="Path 11090" d="M46.878,51.564V31.006a.706.706,0,1,0-1.412,0V51.564A2.536,2.536,0,0,0,43.7,53.879a2.479,2.479,0,0,0,2.393,2.55h.078a2.5,2.5,0,0,0,2.472-2.393,2.6,2.6,0,0,0-.667-1.765A2.221,2.221,0,0,0,46.878,51.564Zm-.706,3.413h0a1,1,0,0,1-.745-.314.9.9,0,0,1-.275-.745,1.039,1.039,0,0,1,1.02-1.02h.039a.982.982,0,0,1,.706.314.9.9,0,0,1,.275.745A1.039,1.039,0,0,1,46.172,54.977Z" transform="translate(-29.694 -19.668)" fill="#f60"/>
      <path id="Path_11091" data-name="Path 11091" d="M26.306,36.4a.7.7,0,0,0-.706.706V53.27a1.239,1.239,0,0,1-1.255,1.255H22.226a2.472,2.472,0,1,0,0,1.412h2.119a2.671,2.671,0,0,0,2.668-2.668V37.106A.7.7,0,0,0,26.306,36.4ZM19.832,56.291a1.059,1.059,0,1,1,1.059-1.059A1.055,1.055,0,0,1,19.832,56.291Z" transform="translate(-13.712 -23.375)" fill="#f60"/>
      <path id="Path_11092" data-name="Path 11092" d="M65.34,52.76a2.484,2.484,0,0,0-2.354,1.765H60.868a1.239,1.239,0,0,1-1.255-1.255V37.106a.706.706,0,0,0-1.412,0V53.27a2.671,2.671,0,0,0,2.668,2.668h2.119a2.463,2.463,0,0,0,4.826-.706A2.513,2.513,0,0,0,65.34,52.76Zm0,3.531A1.059,1.059,0,1,1,66.4,55.231,1.081,1.081,0,0,1,65.34,56.291Z" transform="translate(-38.505 -23.375)" fill="#f60"/>
    </g>
  </g>
</svg>
