<svg xmlns="http://www.w3.org/2000/svg" width="58.955" height="90" viewBox="0 0 58.955 90">
  <g id="Group_16433" data-name="Group 16433" transform="translate(-20.523 -5)">
    <path id="Path_11140" data-name="Path 11140" d="M20.679,78.845l8.964,15.569A1.167,1.167,0,0,0,30.6,95l.061,0a1.167,1.167,0,0,0,.947-.485c.735-1.019,9.592-13.344,18.4-27.27C59.069,81.556,68.3,94.382,68.4,94.515a1.167,1.167,0,0,0,.947.485l.061,0a1.166,1.166,0,0,0,.953-.584l8.964-15.569a1.171,1.171,0,0,0-.107-1.323c-.1-.123-10.083-12.377-19.881-25.865,5.086-9.147,8.822-17.424,8.822-21.991a10.424,10.424,0,0,0-2.494-6.96C63.219,7.84,58.261,5,50,5S36.781,7.84,34.339,22.7a10.421,10.421,0,0,0-2.493,6.96c0,4.152,2.892,11.354,8.817,21.987-9.8,13.485-19.69,25.642-19.877,25.869A1.173,1.173,0,0,0,20.679,78.845ZM76.9,78.373l-7.656,13.3C66.492,87.8,58.813,76.842,51.386,65.05c2.313-3.7,4.59-7.479,6.687-11.155C66.438,65.357,74.784,75.763,76.9,78.373ZM50,7.338c5.865,0,10.3.994,12.823,12.908C58.6,17.493,52.938,16.7,50,16.7s-8.6.793-12.823,3.546C39.7,8.332,44.135,7.338,50,7.338Zm9.4,13.671c-1.362,4.2-4.939,10.418-9.4,17.208-5.009-7.642-8.162-13.417-9.393-17.206A24.886,24.886,0,0,1,50,19.038,24.9,24.9,0,0,1,59.4,21.009ZM34.184,29.665a8.694,8.694,0,0,1,4.341-7.529c1.439,4.146,4.819,10.254,10.072,18.2-2.035,3.033-4.213,6.147-6.422,9.223C35.61,37.624,34.184,32.15,34.184,29.665Zm27.3-7.529a8.7,8.7,0,0,1,4.336,7.529c0,11.95-29.1,53.609-35.057,62.006l-7.653-13.3C27.476,72.98,56.288,37.1,61.48,22.136Z" fill="#f60"/>
  </g>
</svg>
