<svg xmlns="http://www.w3.org/2000/svg" width="89.996" height="90" viewBox="0 0 89.996 90">
  <g id="noun-data-science-6302737" transform="translate(-2.5 -2.5)">
    <path id="Path_11053" data-name="Path 11053" d="M47.5,68.391q1.88-1.464,3.773-3.075-1.869.054-3.773.055t-3.773-.055Q45.619,66.925,47.5,68.391ZM53.919,32q-3.144-.16-6.419-.162c-2.18,0-4.323.055-6.418.162q-2.337,2.111-4.654,4.424A120.53,120.53,0,0,0,26.609,47.5q.283.365.574.731a121.426,121.426,0,0,0,9.245,10.341Q38.74,60.884,41.081,63q3.145.16,6.419.163T53.918,63q2.337-2.109,4.654-4.424a121.43,121.43,0,0,0,9.245-10.341q.29-.366.575-.731a120.7,120.7,0,0,0-9.82-11.072Q56.26,34.117,53.919,32ZM47.5,26.609q-1.88,1.464-3.773,3.075,1.868-.054,3.773-.055t3.773.055Q49.381,28.074,47.5,26.609ZM25.165,49.4l.06-.081.229.291a123.251,123.251,0,0,0,9.41,10.53q1.347,1.347,2.707,2.629A105.244,105.244,0,0,1,26.22,61.252,85.846,85.846,0,0,1,25.165,49.4ZM23.907,60.78c-.41-2.718-.7-5.538-.849-8.436a79.575,79.575,0,0,0-4.377,7.1c1.649.49,3.395.937,5.226,1.34ZM68.781,33.747A86.158,86.158,0,0,1,69.835,45.6l-.06.08a123.053,123.053,0,0,0-9.638-10.821q-1.347-1.347-2.708-2.629,1.995.16,3.92.383c2.59.3,5.075.679,7.432,1.13Zm-5.094-17.16a62.455,62.455,0,0,1,4.684,14.838c-2.17-.4-4.433-.733-6.771-1q-3.3-.38-6.784-.583c-1.833-1.634-3.672-3.174-5.5-4.614a78.117,78.117,0,0,1,13.322-8.161q.53-.247,1.049-.476ZM25.165,45.6A85.858,85.858,0,0,1,26.22,33.747c2.357-.451,4.841-.831,7.431-1.13q1.924-.222,3.92-.383-1.359,1.282-2.707,2.629a122.777,122.777,0,0,0-9.639,10.822l-.06-.082Zm28.843-6.52a.144.144,0,0,1,.1.039h0a.132.132,0,0,1,.041.1V41.5a.132.132,0,0,1-.041.1l-.016.017a.143.143,0,0,1-.077.024H40.993a.14.14,0,0,1-.1-.039h0a.136.136,0,0,1-.041-.1V39.22a.136.136,0,0,1,.041-.1l.016-.017a.145.145,0,0,1,.08-.024ZM40.993,43.845H54.01a.142.142,0,0,1,.077.023l.016.018a.132.132,0,0,1,.041.1v2.275a.132.132,0,0,1-.041.095h0a.139.139,0,0,1-.1.039H40.99a.142.142,0,0,1-.077-.023l-.016-.018a.136.136,0,0,1-.041-.1V43.982a.136.136,0,0,1,.041-.1h0a.14.14,0,0,1,.1-.039Zm0,4.762H54.008a.143.143,0,0,1,.1.038h0a.136.136,0,0,1,.041.1V51.02a.132.132,0,0,1-.041.1l-.016.017a.143.143,0,0,1-.077.024H40.993a.14.14,0,0,1-.1-.039h0a.136.136,0,0,1-.041-.1V48.743a.14.14,0,0,1,.041-.1l.016-.017a.142.142,0,0,1,.077-.023ZM56,52.262a2.333,2.333,0,0,1,.357,1.243V55.78a2.343,2.343,0,0,1-.689,1.66h0a2.338,2.338,0,0,1-1.656.69H40.993a2.34,2.34,0,0,1-1.579-.615c-.028-.023-.055-.048-.082-.075a2.343,2.343,0,0,1-.689-1.66V53.505A2.333,2.333,0,0,1,39,52.262a2.339,2.339,0,0,1-.357-1.244V48.743A2.335,2.335,0,0,1,39,47.5a2.338,2.338,0,0,1-.357-1.243V43.982A2.336,2.336,0,0,1,39,42.738a2.335,2.335,0,0,1-.357-1.243V39.22a2.346,2.346,0,0,1,.689-1.661c.027-.026.054-.051.082-.074a2.34,2.34,0,0,1,1.579-.615H54.008a2.341,2.341,0,0,1,1.656.689h0a2.346,2.346,0,0,1,.689,1.661V41.5A2.335,2.335,0,0,1,56,42.738a2.336,2.336,0,0,1,.357,1.244v2.275A2.338,2.338,0,0,1,56,47.5a2.335,2.335,0,0,1,.357,1.243v2.275A2.339,2.339,0,0,1,56,52.262ZM40.993,53.368H54.01a.143.143,0,0,1,.077.024l.016.017a.132.132,0,0,1,.041.1V55.78a.136.136,0,0,1-.041.1h0a.144.144,0,0,1-.1.039H40.993a.145.145,0,0,1-.08-.024l-.016-.017a.14.14,0,0,1-.041-.1V53.505a.136.136,0,0,1,.041-.1h0a.14.14,0,0,1,.1-.039Zm-5.28-37.107a86.039,86.039,0,0,1,11.775,7.555l.013.01a81.258,81.258,0,0,1,14.2-8.76q.5-.233.992-.45C58.682,7.108,53.327,2.5,47.5,2.5a12.542,12.542,0,0,0-7.219,2.441,24.139,24.139,0,0,0-6.082,6.5c.052.048.1.1.154.147a5.058,5.058,0,0,1,1.36,4.676ZM29.8,20.123a5.064,5.064,0,0,0,4.55-1.387,5.13,5.13,0,0,0,.419-.476,83.3,83.3,0,0,1,10.912,6.965q-2.742,2.159-5.5,4.613c-2.321.133-4.587.329-6.784.583q-3.509.406-6.772,1a66.63,66.63,0,0,1,3.174-11.3ZM73.461,32.509q-1.347-.33-2.756-.625a65.616,65.616,0,0,0-4.971-16.141c6.17-2.367,11.082-2.567,13.586-.063,1.278,1.278,1.844,3.213,1.771,5.635a26.09,26.09,0,0,1-2.109,8.642A5.063,5.063,0,0,0,73.461,32.509Zm1.074,6.15c-.066-.06-.131-.12-.193-.183A5.04,5.04,0,0,1,72.861,34.9c0-.09,0-.18.007-.268q-.873-.213-1.776-.411c.41,2.718.7,5.539.85,8.437q1.392-2.026,2.593-4Zm6.957-.183a5.136,5.136,0,0,0,.673-.832,26.047,26.047,0,0,1,7.6,4.622c1.764,1.66,2.731,3.427,2.731,5.234,0,2.424-1.735,4.771-4.8,6.889a37.46,37.46,0,0,1-9.243,4.37,85.325,85.325,0,0,0-6.4-10.065q.009-.6.008-1.194t-.007-1.193c1.629-2.226,3.1-4.423,4.4-6.563a5.064,5.064,0,0,0,5.032-1.268Zm-3.575-.732a2.844,2.844,0,1,0-2.01-.833,2.844,2.844,0,0,0,2.01.833ZM29.8,74.877a66.658,66.658,0,0,1-3.174-11.3,111.451,111.451,0,0,0,13.556,1.587q2.749,2.451,5.5,4.613a83.37,83.37,0,0,1-10.91,6.963,5.13,5.13,0,0,0-.419-.476,5.064,5.064,0,0,0-4.55-1.387Zm-4.052,5.515a17.62,17.62,0,0,1-5.886.657A6.541,6.541,0,0,1,15.68,79.32c-2.91-2.91-2.168-9.072,1.383-16.682q.279-.6.583-1.209c2.073.63,4.3,1.2,6.649,1.688a69.5,69.5,0,0,0,3.482,12.652,5.12,5.12,0,0,0-.575.495,5.062,5.062,0,0,0-1.451,4.128Zm8.6,3.022c-.051.051-.1.1-.154.148a24.139,24.139,0,0,0,6.082,6.5A12.542,12.542,0,0,0,47.5,92.5c4.362,0,8.464-2.586,11.934-7.036A35.407,35.407,0,0,0,62.7,80.385c-.33-.145-.661-.3-1-.451a81.318,81.318,0,0,1-14.2-8.76l-.013.01a86.136,86.136,0,0,1-11.775,7.555,5.056,5.056,0,0,1-1.36,4.675Zm-3.576-.732a2.842,2.842,0,1,0-2.01-.832,2.842,2.842,0,0,0,2.01.832ZM71.526,57.453A5.073,5.073,0,0,1,74.306,60q1.029-.272,2.012-.564a79.383,79.383,0,0,0-4.378-7.1q-.018.333-.037.667-.137,2.276-.377,4.449ZM64.7,61.945c-2.317.342-4.745.618-7.267.821q1.359-1.282,2.708-2.63a123.409,123.409,0,0,0,9.409-10.53l.229-.291.061.082q-.04,1.773-.14,3.477-.129,2.154-.363,4.274a5.056,5.056,0,0,0-4.639,4.8ZM67.68,66.8a59.665,59.665,0,0,1-3.989,11.612c-.347-.154-.7-.313-1.053-.478a78.065,78.065,0,0,1-13.322-8.162c1.828-1.44,3.667-2.98,5.5-4.613q1.087-.063,2.159-.144c2.78-.209,5.488-.512,8.1-.9A5.076,5.076,0,0,0,67.68,66.8Zm5.642-1.041A5.04,5.04,0,0,0,74.8,62.187v-.033q1.311-.346,2.553-.723.3.608.582,1.207c3.552,7.61,4.293,13.772,1.383,16.682-2.5,2.5-7.418,2.3-13.59-.065A62.1,62.1,0,0,0,69.84,67.243a5.043,5.043,0,0,0,3.48-1.481Zm-3.576-.732a2.841,2.841,0,1,1,2.011-.832,2.841,2.841,0,0,1-2.011.832ZM16.019,29.957a26.069,26.069,0,0,1-2.11-8.642c-.073-2.422.493-4.357,1.771-5.635a6.544,6.544,0,0,1,4.185-1.73,17.623,17.623,0,0,1,5.886.658A5.062,5.062,0,0,0,27.2,18.736a5.21,5.21,0,0,0,.575.5A69.409,69.409,0,0,0,24.3,31.884q-1.408.3-2.756.625a5.121,5.121,0,0,0-.88-1.184,5.059,5.059,0,0,0-4.64-1.368Zm2.521,9.787c1.3,2.14,2.77,4.337,4.4,6.563q-.009.6-.008,1.193c0,.4,0,.8.008,1.194a85.2,85.2,0,0,0-6.4,10.066q-.647-.217-1.268-.443C7.382,55.447,2.5,51.615,2.5,47.5c0-1.807.967-3.574,2.731-5.234a26.069,26.069,0,0,1,7.6-4.623,5.06,5.06,0,0,0,5.7,2.1Zm2.119-1.268c-.063.063-.127.124-.193.183q1.2,1.97,2.592,4c.152-2.9.44-5.719.849-8.437q-.9.2-1.774.411c0,.088.007.178.007.268a5.04,5.04,0,0,1-1.481,3.575Zm-3.576-.732a2.844,2.844,0,1,0-2.01-.833A2.844,2.844,0,0,0,17.083,37.744ZM30.777,18a2.844,2.844,0,1,0-2.01-.833,2.844,2.844,0,0,0,2.01.833Z" fill="#f60" fill-rule="evenodd"/>
  </g>
</svg>
