<svg xmlns="http://www.w3.org/2000/svg" width="36.07" height="36.01" viewBox="0 0 36.07 36.01">
  <g id="noun-data-science-4382217" transform="translate(0.101)">
    <path id="Path_11093" data-name="Path 11093" d="M35.97,9A2.388,2.388,0,0,0,32,7.2a13.6,13.6,0,0,0-6.847-1.16C23.353,2.2,20.749,0,17.965,0A5.606,5.606,0,0,0,15.4.65,2.39,2.39,0,0,0,11.94,3.944a15.648,15.648,0,0,0-1.164,2.089,14.891,14.891,0,0,0-5.934.749A6.422,6.422,0,0,0,1.035,10.1c-1.02,2.314-.37,5.131,1.55,7.932-1.766,2.577-2.4,5.1-1.8,7.181a2.39,2.39,0,1,0,3.136,3.6A12.684,12.684,0,0,0,9.7,30.008c.347,0,.709-.02,1.069-.038,1.8,3.841,4.408,6.04,7.193,6.04s5.388-2.2,7.19-6.035c.356.019.713.037,1.058.037a13.978,13.978,0,0,0,4.876-.78,6.422,6.422,0,0,0,3.806-3.318c1.02-2.314.37-5.131-1.55-7.931,1.766-2.577,2.4-5.095,1.8-7.181A2.387,2.387,0,0,0,35.97,9Zm-2.4-1.2a1.2,1.2,0,1,1-1.2,1.2A1.2,1.2,0,0,1,33.569,7.8ZM19.858,27.887c.695-.273,1.393-.57,2.088-.894a35.369,35.369,0,0,0,3.641-1.967,22.9,22.9,0,0,1-1.2,3.707,26.372,26.372,0,0,1-4.529-.846ZM26.367,18a31.292,31.292,0,0,1-.456,5.382,33.7,33.7,0,0,1-4.473,2.521,34.259,34.259,0,0,1-3.481,1.4,34.737,34.737,0,0,1-3.465-1.4A34.51,34.51,0,0,1,10.02,23.4a32,32,0,0,1,0-10.774A33.7,33.7,0,0,1,14.493,10.1a34.4,34.4,0,0,1,3.471-1.4,34.413,34.413,0,0,1,7.947,3.9A31.319,31.319,0,0,1,26.367,18Zm.91-4.429a23.54,23.54,0,0,1,4.583,4.4,23.1,23.1,0,0,1-4.581,4.435A33.263,33.263,0,0,0,27.567,18a33.2,33.2,0,0,0-.29-4.429ZM11.533,28.711a22.79,22.79,0,0,1-1.185-3.677,36.4,36.4,0,0,0,3.635,1.959c.7.326,1.4.616,2.1.891a25.826,25.826,0,0,1-4.545.828ZM16.063,8.125c-.693.272-1.388.568-2.08.891a35.371,35.371,0,0,0-3.638,1.967,22.871,22.871,0,0,1,1.193-3.7,26.3,26.3,0,0,1,4.525.841ZM8.652,22.433a23.558,23.558,0,0,1-4.583-4.4A23.1,23.1,0,0,1,8.65,13.594a33.976,33.976,0,0,0,0,8.839ZM21.947,9.017c-.695-.325-1.392-.619-2.089-.893A25.8,25.8,0,0,1,24.4,7.3a22.8,22.8,0,0,1,1.185,3.677,36.521,36.521,0,0,0-3.635-1.958ZM13.764,1.2a1.2,1.2,0,1,1-1.2,1.2A1.2,1.2,0,0,1,13.764,1.2Zm-.846,3.44a2.372,2.372,0,0,0,.846.161,2.4,2.4,0,0,0,2.4-2.4,2.372,2.372,0,0,0-.127-.735A4.394,4.394,0,0,1,17.965,1.2c2.208,0,4.334,1.792,5.913,4.947a28.748,28.748,0,0,0-5.91,1.295,29.279,29.279,0,0,0-5.915-1.308,14.044,14.044,0,0,1,.865-1.494ZM2.133,10.581A5.191,5.191,0,0,1,5.263,7.9a12.8,12.8,0,0,1,4.47-.714c.176,0,.36.014.54.019a25.312,25.312,0,0,0-1.347,4.709A25.7,25.7,0,0,0,3.34,17c-1.5-2.322-2.015-4.594-1.207-6.422ZM2.36,28.208a1.2,1.2,0,1,1,1.2-1.2A1.2,1.2,0,0,1,2.36,28.208Zm2.251-.392a2.366,2.366,0,0,0,.15-.808,2.394,2.394,0,0,0-2.868-2.353c-.37-1.6.136-3.547,1.456-5.6A25.839,25.839,0,0,0,8.93,24.116a25.339,25.339,0,0,0,1.339,4.677,12.2,12.2,0,0,1-5.658-.977Zm13.354,6.994c-2.208,0-4.334-1.792-5.913-4.947a28.808,28.808,0,0,0,5.918-1.3,29.24,29.24,0,0,0,5.9,1.307C22.3,33.019,20.171,34.809,17.965,34.809ZM33.8,25.427h0a5.191,5.191,0,0,1-3.13,2.678,13.3,13.3,0,0,1-5.014.7A25.343,25.343,0,0,0,27,24.093a25.692,25.692,0,0,0,5.586-5.086C34.094,21.328,34.6,23.6,33.8,25.427Zm-1.216-8.475A25.856,25.856,0,0,0,27,11.893,25.319,25.319,0,0,0,25.66,7.217a12.2,12.2,0,0,1,5.66.977A2.366,2.366,0,0,0,31.168,9a2.394,2.394,0,0,0,2.868,2.353C34.409,12.96,33.9,14.9,32.581,16.952Z" transform="translate(0 0)" fill="#f60"/>
    <path id="Path_11094" data-name="Path 11094" d="M19,22.8v2.4a1.789,1.789,0,0,0,.468,1.2A1.789,1.789,0,0,0,19,27.6V30a1.8,1.8,0,0,0,1.8,1.8h9.6A1.8,1.8,0,0,0,32.2,30V27.6a1.789,1.789,0,0,0-.468-1.2,1.789,1.789,0,0,0,.468-1.2V22.8A1.8,1.8,0,0,0,30.4,21H20.8A1.8,1.8,0,0,0,19,22.8ZM31,30a.6.6,0,0,1-.6.6H20.8a.6.6,0,0,1-.6-.6V27.6a.6.6,0,0,1,.6-.6h9.6a.6.6,0,0,1,.6.6Zm0-7.2v2.4a.6.6,0,0,1-.6.6H20.8a.6.6,0,0,1-.6-.6V22.8a.6.6,0,0,1,.6-.6h9.6A.6.6,0,0,1,31,22.8Z" transform="translate(-7.637 -8.397)" fill="#f60"/>
    <path id="Path_11095" data-name="Path 11095" d="M23.6,26.2h.6a.6.6,0,0,0,0-1.2h-.6a.6.6,0,0,0,0,1.2Z" transform="translate(-9.236 -9.996)" fill="#f60"/>
    <path id="Path_11096" data-name="Path 11096" d="M31.6,26.2H34A.6.6,0,0,0,34,25H31.6a.6.6,0,1,0,0,1.2Z" transform="translate(-12.435 -9.996)" fill="#f60"/>
    <path id="Path_11097" data-name="Path 11097" d="M24.2,33h-.6a.6.6,0,1,0,0,1.2h.6a.6.6,0,1,0,0-1.2Z" transform="translate(-9.236 -13.195)" fill="#f60"/>
    <path id="Path_11098" data-name="Path 11098" d="M34,33H31.6a.6.6,0,1,0,0,1.2H34A.6.6,0,0,0,34,33Z" transform="translate(-12.435 -13.195)" fill="#f60"/>
  </g>
</svg>
