<svg xmlns="http://www.w3.org/2000/svg" width="73.235" height="89.992" viewBox="0 0 73.235 89.992">
  <g id="noun-flexibility-6143540" transform="translate(-13.382 -5.008)">
    <path id="Path_11136" data-name="Path 11136" d="M37.1,62.971a12.9,12.9,0,1,0,25.8-.1,1.193,1.193,0,0,1,1.19-1.193v-.005H80.928a1.2,1.2,0,0,1,1.2,1.2V68.9a1.2,1.2,0,0,1-1.2,1.2H74.942a25.747,25.747,0,0,1-2.2,5.294l4.235,4.235a1.2,1.2,0,0,1,0,1.693l-8.53,8.53a1.2,1.2,0,0,1-1.693,0l-4.235-4.235a25.724,25.724,0,0,1-5.294,2.2V93.8a1.2,1.2,0,0,1-1.2,1.2H43.968a1.2,1.2,0,0,1-1.2-1.2V87.811a25.692,25.692,0,0,1-5.293-2.2L33.242,89.85a1.2,1.2,0,0,1-1.693,0l-8.53-8.53a1.2,1.2,0,0,1,0-1.693l4.235-4.235a25.724,25.724,0,0,1-2.2-5.294H19.072a1.2,1.2,0,0,1-1.2-1.2V62.869a1.2,1.2,0,0,1,1.2-1.2H35.91a1.2,1.2,0,0,1,1.193,1.3Zm8.206-23.4a14.866,14.866,0,0,0-5.586-1.085H29.478V33.41h0a1.2,1.2,0,0,0-1.887-.973L13.9,42.2a1.2,1.2,0,0,0-.02,1.961L27.512,53.88a1.2,1.2,0,0,0,1.964-.92V47.874H39.723a5.614,5.614,0,0,1,5.586,5.586v.349a10.2,10.2,0,1,0,9.382.007l-.022-1.166a1.155,1.155,0,0,0,.022-.229V41.042a5.616,5.616,0,0,1,5.586-5.586H70.522v5.081h0a1.2,1.2,0,0,0,1.887.973L86.1,31.752a1.2,1.2,0,0,0,.02-1.96l-13.632-9.72a1.2,1.2,0,0,0-1.964.921v5.08H60.277a14.866,14.866,0,0,0-5.586,1.085V21.1h5.081a1.2,1.2,0,0,0,.973-1.887L50.987,5.526a1.2,1.2,0,0,0-1.96-.02l-9.72,13.632a1.2,1.2,0,0,0,.921,1.964h5.081V39.576ZM52.3,28.39a15.115,15.115,0,0,0-4.6,4.548V19.905a1.2,1.2,0,0,0-1.2-1.2H42.548L50,8.256l7.452,10.451H53.494a1.2,1.2,0,0,0-1.2,1.2V28.39Zm0,16.966a15.1,15.1,0,0,0-4.59-4.547,12.606,12.606,0,0,1,12.571-12.34H71.719a1.2,1.2,0,0,0,1.2-1.2V23.313L83.37,30.765,72.917,38.217V34.259a1.2,1.2,0,0,0-1.2-1.2H60.277A8.012,8.012,0,0,0,52.3,41.042Zm-4.6,9.213a1.2,1.2,0,0,1-.8,1.13l-.2.093a7.819,7.819,0,1,0,6.424-.081,1.2,1.2,0,0,1-.827-1.139V53.46A12.6,12.6,0,0,0,39.723,40.886H28.281a1.2,1.2,0,0,1-1.2-1.2V35.731L16.632,43.183l10.451,7.451V46.676a1.2,1.2,0,0,1,1.2-1.2h11.44A8.01,8.01,0,0,1,47.7,53.46ZM35.078,66.17a15.168,15.168,0,0,1-.315-2.1H20.27V67.7h5.7a1.2,1.2,0,0,1,1.16.906A23.471,23.471,0,0,0,29.72,74.9a1.2,1.2,0,0,1-.129,1.54l-4.035,4.034L32.4,87.31l4.034-4.035h0a1.193,1.193,0,0,1,1.457-.18A23.526,23.526,0,0,0,44.2,85.72a1.2,1.2,0,0,1,.97,1.176v5.7h9.668V86.9h0a1.2,1.2,0,0,1,.907-1.16,23.519,23.519,0,0,0,6.288-2.59,1.2,1.2,0,0,1,1.54.129L67.6,87.31l6.837-6.837L70.4,76.439h0a1.193,1.193,0,0,1-.18-1.457,23.526,23.526,0,0,0,2.622-6.306,1.2,1.2,0,0,1,1.176-.97h5.7V64.067H65.22a15.283,15.283,0,0,1-30.157,2.1Z" fill="#f60" fill-rule="evenodd"/>
  </g>
</svg>
