<svg xmlns="http://www.w3.org/2000/svg" width="88.688" height="88.688" viewBox="0 0 88.688 88.688">
  <g id="noun-flexibility-5507252" transform="translate(-3.656 -3.654)">
    <path id="Path_11137" data-name="Path 11137" d="M92,34.809,81.218,23.529a1.257,1.257,0,0,0-2.165.868v4.472A27.708,27.708,0,0,0,54.736,45.291V16.9h4.5a1.257,1.257,0,0,0,.868-2.165L48.868,4a1.257,1.257,0,0,0-1.736,0L35.9,14.737a1.257,1.257,0,0,0,.868,2.165h4.5V45.29A27.708,27.708,0,0,0,16.947,28.868V24.4a1.257,1.257,0,0,0-2.165-.868L4,34.809a1.257,1.257,0,0,0,0,1.736L14.782,47.824a1.257,1.257,0,0,0,2.165-.868V42.364a14.2,14.2,0,0,1,11.576,7.522l-.389.389a2.863,2.863,0,0,0,0,4.044,4.145,4.145,0,0,1-2.93,7.072,2.862,2.862,0,0,0-2.859,2.859v4.879A2.862,2.862,0,0,0,25.2,71.988a4.145,4.145,0,0,1,2.93,7.072,2.863,2.863,0,0,0,0,4.044l3.45,3.45a2.863,2.863,0,0,0,4.044,0A4.143,4.143,0,0,1,42.7,89.483a2.862,2.862,0,0,0,2.859,2.859h4.879A2.862,2.862,0,0,0,53.3,89.483a4.145,4.145,0,0,1,7.072-2.93,2.86,2.86,0,0,0,4.044,0l3.45-3.45a2.863,2.863,0,0,0,0-4.044,4.145,4.145,0,0,1,2.929-7.072,2.862,2.862,0,0,0,2.859-2.859V64.25a2.862,2.862,0,0,0-2.859-2.859,4.145,4.145,0,0,1-2.929-7.072,2.863,2.863,0,0,0,0-4.044l-.389-.389a14.2,14.2,0,0,1,11.576-7.522v4.592a1.257,1.257,0,0,0,2.165.868L91.994,36.545A1.253,1.253,0,0,0,92,34.809ZM39.9,14.389,48,6.65l8.1,7.739h-2.62a1.257,1.257,0,0,0-1.257,1.257V41.663a2.845,2.845,0,0,0-1.782-.627H45.56a2.845,2.845,0,0,0-1.782.627V15.646a1.257,1.257,0,0,0-1.257-1.257ZM15.668,39.82a1.256,1.256,0,0,0-1.234,1.256v2.745L6.65,35.677l7.783-8.145v2.58a1.254,1.254,0,0,0,.373.893,1.268,1.268,0,0,0,.9.363A25.359,25.359,0,0,1,39.607,47.9a4.051,4.051,0,0,1-3.98-1.072,2.863,2.863,0,0,0-4.044,0L30.37,48.04A16.721,16.721,0,0,0,15.668,39.82ZM70.795,63.9a.346.346,0,0,1,.346.346V69.13a.346.346,0,0,1-.346.346,6.659,6.659,0,0,0-4.707,11.363.346.346,0,0,1,0,.489l-3.45,3.45a.338.338,0,0,1-.245.1.344.344,0,0,1-.245-.1,6.659,6.659,0,0,0-11.363,4.707.346.346,0,0,1-.346.346H45.56a.346.346,0,0,1-.346-.346,6.555,6.555,0,0,0-4.109-6.15,6.752,6.752,0,0,0-2.59-.524,6.561,6.561,0,0,0-4.664,1.967.346.346,0,0,1-.489,0l-3.45-3.45a.346.346,0,0,1,0-.489A6.659,6.659,0,0,0,25.2,69.476a.346.346,0,0,1-.346-.346V64.251A.346.346,0,0,1,25.2,63.9a6.659,6.659,0,0,0,4.707-11.363.346.346,0,0,1,0-.489l3.45-3.45a.346.346,0,0,1,.489,0A6.659,6.659,0,0,0,45.214,43.9a.346.346,0,0,1,.346-.346h4.879a.346.346,0,0,1,.346.346A6.66,6.66,0,0,0,62.149,48.6a.338.338,0,0,1,.244-.1.344.344,0,0,1,.245.1l3.45,3.45a.346.346,0,0,1,0,.489A6.659,6.659,0,0,0,70.795,63.9ZM81.566,43.822V41.077a1.256,1.256,0,0,0-1.234-1.256l-.3,0a16.716,16.716,0,0,0-14.4,8.222l-1.215-1.215a2.86,2.86,0,0,0-4.044,0,4.05,4.05,0,0,1-3.98,1.073A25.363,25.363,0,0,1,80.025,31.366h.27a1.257,1.257,0,0,0,1.27-1.256v-2.58l7.783,8.145ZM48,53.511A13.179,13.179,0,1,0,61.18,66.69,13.194,13.194,0,0,0,48,53.511Zm0,23.845A10.666,10.666,0,1,1,58.666,66.69,10.678,10.678,0,0,1,48,77.356Z" fill="#f60"/>
  </g>
</svg>
