<?xml version="1.0" encoding="UTF-8"?>
<svg id="Layer_1" xmlns="http://www.w3.org/2000/svg" version="1.1" viewBox="0 0 95 96.06">
  <!-- Generator: Adobe Illustrator 29.5.1, SVG Export Plug-In . SVG Version: 2.1.0 Build 141)  -->
  <defs>
    <style>
      .st0 {
        fill: #e14a25;
        fill-rule: evenodd;
      }
    </style>
  </defs>
  <path class="st0" d="M83,47.56c.01,7.11-2.12,14.05-6.13,19.92-.08.25-.23.46-.43.62-11.35,15.94-33.47,19.65-49.4,8.3-3.21-2.29-6.02-5.09-8.3-8.3-.2-.16-.36-.37-.43-.62-4-5.87-6.14-12.81-6.13-19.92,0-.71.57-1.28,1.28-1.28h68.27c.71,0,1.28.57,1.28,1.28h0ZM3.34,65.1l.83-1.76c8.75,23.98,35.28,36.32,59.26,27.57,18.24-6.66,30.37-24,30.37-43.41.02-.71-.54-1.29-1.24-1.31-.71-.02-1.29.54-1.31,1.24,0,.02,0,.05,0,.07,0,24.11-19.56,43.65-43.68,43.64-18.4,0-34.83-11.55-41.06-28.87l2.02.95c.65.28,1.4-.03,1.67-.67.26-.62,0-1.33-.59-1.63l-4.59-2.15c-.61-.35-1.39-.13-1.74.48-.03.06-.06.12-.08.18l-2.15,4.59c-.3.64-.02,1.4.61,1.69.64.3,1.4.02,1.69-.61ZM91.66,29.32l-.85,1.81C81.77,7.26,55.09-4.76,31.22,4.28,13.26,11.09,1.38,28.29,1.38,47.5c0,.71.57,1.28,1.28,1.28.71,0,1.28-.57,1.28-1.28h0c0-24.11,19.56-43.66,43.67-43.65,18.17,0,34.44,11.26,40.85,28.27l-1.97-.92c-.63-.3-1.4-.04-1.7.6-.3.63-.04,1.4.6,1.7,0,0,.02,0,.03.01l4.6,2.15c.62.34,1.39.12,1.74-.5.03-.05.05-.1.07-.16l2.16-4.6c.3-.64.02-1.4-.61-1.69-.64-.3-1.4-.02-1.69.61h0ZM47.58,14.67c3.25,0,5.89,2.63,5.89,5.88,0,3.25-2.63,5.89-5.88,5.89s-5.89-2.63-5.89-5.88c0-1.56.62-3.06,1.72-4.16,1.1-1.11,2.6-1.73,4.16-1.72ZM41.49,14.45c3.37-3.37,8.83-3.37,12.2,0s3.37,8.83,0,12.2h0c-.2.2-.42.4-.64.58,2.38.71,4.6,1.87,6.54,3.43.8.64,1.54,1.34,2.23,2.1.92-.6,1.91-1.08,2.95-1.45-2.52-2.56-2.48-6.69.08-9.21,2.56-2.52,6.69-2.48,9.21.08,2.49,2.53,2.49,6.59,0,9.13,4.56,1.61,7.96,5.45,9.01,10.16.16.74-.3,1.46-1.04,1.62-.1.02-.2.03-.3.03h0s-68.28,0-68.28,0c-.76,0-1.37-.61-1.37-1.37,0-.14.02-.29.07-.43,1.08-4.66,4.47-8.45,8.98-10.04-2.52-2.56-2.49-6.69.08-9.21s6.69-2.49,9.21.08c2.49,2.53,2.49,6.59,0,9.13,1.04.36,2.03.85,2.95,1.45.69-.76,1.43-1.46,2.23-2.1,1.94-1.56,4.16-2.72,6.54-3.43-.22-.18-.43-.37-.63-.58-3.37-3.37-3.37-8.82,0-12.19,0,0,0,0,0,0h0ZM47.58,29.18c7.07,0,13.36,4.52,15.61,11.22h-31.21c2.25-6.71,8.53-11.22,15.61-11.22ZM63.5,34.91c.69-.43,1.43-.78,2.2-1.05,5.72-1.98,11.98.9,14.19,6.54h-13.84c-.55-1.95-1.41-3.81-2.55-5.49ZM29.12,40.4h-13.84c2.22-5.62,8.47-8.5,14.18-6.54.77.27,1.51.62,2.2,1.05-1.14,1.68-1.99,3.54-2.54,5.49ZM72.07,24.08c1.47,1.47,1.48,3.85,0,5.33-1.47,1.47-3.85,1.48-5.33,0s-1.48-3.85,0-5.33c.71-.71,1.66-1.1,2.66-1.11,1,0,1.96.39,2.67,1.1ZM28.43,24.08c1.47,1.47,1.48,3.86,0,5.33-1.47,1.47-3.86,1.48-5.33,0s-1.48-3.86,0-5.33c.71-.71,1.66-1.11,2.67-1.11,1,0,1.96.39,2.67,1.1ZM73.01,68.38h-8.17c-.59,1.36-1.26,2.69-2.01,3.97-1.39,2.43-3.15,4.63-5.23,6.52,4.98-1.6,9.51-4.36,13.21-8.07.77-.77,1.5-1.58,2.19-2.42ZM62.05,68.38h-13.19v11.97c4.54-.55,8.67-3.99,11.77-9.29.5-.85.97-1.74,1.41-2.68h0ZM46.31,68.38h-13.19c.44.94.91,1.83,1.41,2.68,3.1,5.29,7.24,8.74,11.78,9.28v-11.97h0ZM30.32,68.38h-8.17c.69.84,1.42,1.65,2.19,2.42,3.7,3.7,8.23,6.47,13.21,8.07-2.08-1.88-3.84-4.08-5.23-6.52-.75-1.28-1.42-2.61-2.01-3.97ZM20.26,65.82h9.05c-1.91-5.46-2.93-11.19-3.01-16.97h-11.55c.23,6.06,2.13,11.94,5.51,16.97ZM32.03,65.82h14.28v-16.97h-17.44c.08,5.8,1.15,11.54,3.17,16.97ZM48.86,65.82h14.28c2.02-5.44,3.09-11.18,3.17-16.97h-17.44v16.97ZM65.86,65.82h9.05c3.38-5.04,5.28-10.91,5.51-16.97h-11.55c-.09,5.78-1.1,11.51-3.01,16.97Z"/>
</svg>