<?xml version="1.0" encoding="UTF-8"?>
<svg id="Layer_1" xmlns="http://www.w3.org/2000/svg" version="1.1" viewBox="0 0 110 112.24">
  <!-- Generator: Adobe Illustrator 29.5.1, SVG Export Plug-In . SVG Version: 2.1.0 Build 141)  -->
  <defs>
    <style>
      .st0 {
        fill: #e14a25;
        fill-rule: evenodd;
      }
    </style>
  </defs>
  <path class="st0" d="M55.71,22.79c-.09.36-.38.62-.72.7-2.51.57-4.9,1.56-7.06,2.93-.29.18-.67.2-.99.02l-5.9-3.46-3.65,3.65,3.43,5.86c.2.3.21.7,0,1.03-1.36,2.16-2.36,4.55-2.93,7.06-.07.34-.33.62-.69.71l-6.61,1.73v5.16l6.59,1.72c.35.08.63.35.71.72.56,2.5,1.57,4.91,2.93,7.06.18.29.2.67.02.99l-3.46,5.9,3.65,3.65,5.86-3.43c.3-.2.7-.21,1.03,0,2.16,1.36,4.55,2.36,7.06,2.93.34.07.62.33.71.69l1.73,6.61h5.16l1.72-6.59c.08-.35.35-.63.72-.71,2.51-.57,4.9-1.57,7.06-2.93.45-.28,1.04-.15,1.32.3.28.45.15,1.04-.3,1.32-2.2,1.38-4.56,2.4-7.09,3.04l-1.77,6.77c-.11.43-.5.71-.92.71h0s-6.63,0-6.63,0c-.47,0-.86-.34-.94-.79l-1.75-6.7c-2.34-.59-4.54-1.5-6.6-2.73l-6.04,3.54c-.38.22-.86.15-1.16-.15h0s-4.69-4.69-4.69-4.69c-.34-.34-.37-.86-.11-1.23l3.5-5.97c-1.23-2.05-2.15-4.26-2.73-6.59l-6.77-1.77c-.43-.11-.71-.5-.71-.92h0v-6.63c0-.47.34-.86.79-.94l6.7-1.75c.59-2.34,1.5-4.54,2.73-6.6l-3.54-6.04c-.22-.38-.15-.86.15-1.16h0s4.69-4.7,4.69-4.7c.34-.34.86-.37,1.23-.11l5.97,3.5c2.05-1.23,4.27-2.15,6.61-2.74l1.77-6.77c.11-.44.52-.73.96-.71l6.59-.02c.45,0,.82.3.92.71l1.77,6.77c2.53.64,4.89,1.66,7.09,3.04.45.28.58.87.3,1.32-.28.45-.87.58-1.32.3-2.16-1.36-4.55-2.36-7.06-2.93-.34-.07-.62-.33-.71-.69l-1.72-6.61h-5.16s-1.73,6.6-1.73,6.6ZM30.52,15.65l3.2-.29c-16.47,12.64-19.65,36.28-6.95,52.88.32.42.92.5,1.34.18.42-.32.5-.92.18-1.34-12.07-15.79-9.04-38.24,6.62-50.22l-1.4,3.03c-.22.48-.01,1.05.46,1.27.48.22,1.05.01,1.27-.46l2.85-6.18c.32-.68-.19-1.47-1.01-1.37l-6.74.62c-1.25.11-1.07,2.01.18,1.89h0ZM49.09,78.05s-.07-.03-.11-.04c-11.9-3.59-14.27-2.29-19.88.79-1.14.62-2.42,1.33-3.93,2.06l-1.07-2.47c-.21-.48-.77-.71-1.25-.5l-7.7,3.32c-.48.21-.71.77-.5,1.25l10.28,23.83c.21.48.77.71,1.25.5l7.7-3.32c.48-.21.71-.77.5-1.25l-.91-2.1.76-.43c1.29-.72,4.74-.09,8.65.63,2.65.48,5.51,1.01,8.18,1.18.4.05,3.22.18,4.21.04,3.36-.47,10.22-1.35,16.48-4.29,4.41-2.07,6.17-3.15,9.59-5.7,2.42-1.81,5.72-5.63,7.09-8.49.84-1.75,1.08-3.36.25-4.46-.1-.14-.23-.27-.38-.4-1.88-1.6-3.48-.43-6.19,1.56-3.36,2.46-4.89,3.38-8.88,4.94.12-.48.14-.98.07-1.48-.63-4.43-6.77-1.62-9.94-1.71-7.85-.22-8.55-1.35-14.29-3.45h0ZM71.77,87.26c-2.21,2.4-6.39,4.22-9.39,4.65-1.7.24-7.32-.75-11.67-1.53-1.76-.31-3.31-.59-4.24-.72-1.25-.18-.98-2.07.27-1.89,1.02.14,2.55.42,4.3.73,4.22.75,9.68,1.72,11.07,1.52,2.14-.3,4.77-1.38,6.7-2.73,1.23-.86,2.88-2.32,2.6-3.93-.23-1.12-2.43-.74-4.59-.36-1.22.21-2.43.43-3.49.4-6.4-.18-8.08-.86-11.53-2.25l-3.37-1.31c-11.13-3.36-13.29-2.18-18.41.63-1.16.64-2.47,1.36-4.09,2.14l6.79,15.75c.23-.13.43-.24.59-.34,1.88-1.05,5.65-.36,9.92.42,2.88.53,5.99,1.1,8.76,1.19,1.41.05,2.14.13,3.55-.06,2.98-.41,9.59-1.32,15.42-4.05,4.27-2.01,5.91-3.01,9.26-5.51,2.21-1.65,5.27-5.18,6.51-7.78.54-1.12.82-2.19.36-2.59-.73-.62-1.88.22-3.82,1.65-2.51,1.84-3.98,2.88-7.07,4.25-1.86.82-3.67,1.48-4.42,1.72h0ZM22.73,80.02l9.53,22.08-5.94,2.56-9.53-22.08,5.94-2.56ZM90.39,44.88c-.62,1.29.63,2.75,2.02,2.27,1.29-.45,1.59-2.32.12-3.05-.72-.36-1.75-.04-2.14.79h0ZM88.52,46.76c.3.86.93,1.6,1.81,2.03,2.84,1.37,5.93-1.39,4.89-4.37-1.14-3.26-5.84-3.12-6.77.21h-9.93c-.09-1.71-.4-3.36-.92-4.93h9.44c.53,0,.96-.43.96-.96l-.02-2.94c1.9-.61,2.93-2.67,2.27-4.55-1.04-2.98-5.18-3.21-6.55-.37-.98,2.04.18,4.48,2.38,5v1.91s-9.23,0-9.23,0c-.97-2.12-2.32-4.02-3.96-5.62h6.41c.53,0,.95-.43.95-.95v-4.64c.96-.27,1.79-.93,2.25-1.88,1.37-2.84-1.39-5.94-4.37-4.89-3.27,1.14-3.12,5.84.22,6.77v3.68h-7.75c-3.05-2.14-6.77-3.41-10.78-3.41-10.35,0-18.73,8.39-18.73,18.73s8.39,18.73,18.73,18.73c3.6,0,6.96-1.02,9.81-2.77h8.7l-.04,3.69c-1.95.57-3.02,2.66-2.35,4.58,1.05,3.02,5.23,3.17,6.55.37.97-2.06-.16-4.41-2.29-4.98l.05-4.61c0-.53-.43-.96-.95-.96h0s-7.09,0-7.09,0c1.96-1.73,3.55-3.86,4.64-6.25h9.23l-.02,1.86c-1,.25-1.88.92-2.36,1.91-1.37,2.84,1.39,5.93,4.37,4.89,3.21-1.12,3.14-5.72-.11-6.74l.04-2.79c.04-.61-.4-1.05-.95-1.05h-9.44c.52-1.56.83-3.21.92-4.93h9.93c.02.08.04.15.06.22h0ZM85.41,57.99c.39-.82,1.38-1.16,2.2-.77,1.33.64,1.19,2.55-.17,3.03-1.37.48-2.67-.94-2.03-2.26h0ZM85.41,31.72c.4-.83,1.42-1.15,2.14-.79,1.47.73,1.17,2.61-.12,3.05-1.36.48-2.66-.94-2.02-2.27h0ZM77.8,67.94c.4-.83,1.42-1.15,2.14-.79,1.47.73,1.17,2.6-.12,3.05-1.37.48-2.66-.95-2.02-2.27h0ZM77.8,22.45c.39-.82,1.38-1.16,2.19-.77,1.32.64,1.2,2.55-.17,3.03-1.37.48-2.66-.94-2.02-2.26h0ZM47.52,57.08c.83-1.62,1.98-3.06,3.35-4.23-.41-1.95-.67-4.08-.73-6.3h-7.13c.23,4.07,1.9,7.75,4.51,10.53h0ZM52.57,51.61c1.85-1.14,3.99-1.86,6.28-2.02v-3.05h-6.79c.04,1.78.22,3.48.51,5.07h0ZM60.76,49.6c2.29.16,4.43.88,6.28,2.02.29-1.59.46-3.29.51-5.07h-6.79v3.05ZM68.74,52.85c1.38,1.17,2.52,2.61,3.35,4.23,2.61-2.79,4.28-6.47,4.51-10.53h-7.13c-.05,2.22-.31,4.35-.73,6.3h0ZM70.64,58.46c-.59-1.31-1.42-2.5-2.43-3.5-.71,2.43-1.8,4.87-3.35,6.68,2.14-.67,4.1-1.76,5.78-3.18h0ZM66.6,53.61c-1.68-1.18-3.68-1.92-5.84-2.09v10.76c3.04-.86,4.98-5.33,5.84-8.66h0ZM58.85,51.52c-2.16.17-4.16.92-5.84,2.09.86,3.33,2.8,7.8,5.84,8.66v-10.76ZM51.4,54.96c-1.01,1-1.84,2.19-2.43,3.5,1.68,1.41,3.64,2.5,5.78,3.18-1.55-1.82-2.64-4.26-3.35-6.68h0ZM72.09,34.1c-.83,1.62-1.98,3.06-3.35,4.23.41,1.95.67,4.08.73,6.3h7.13c-.23-4.07-1.9-7.75-4.51-10.53h0ZM67.04,39.57c-1.85,1.14-3.99,1.86-6.28,2.02v3.05h6.79c-.05-1.77-.22-3.48-.51-5.07h0ZM58.85,41.58c-2.29-.16-4.43-.88-6.28-2.02-.29,1.59-.46,3.29-.51,5.07h6.79v-3.05ZM50.87,38.33c-1.38-1.17-2.52-2.61-3.35-4.23-2.61,2.79-4.28,6.47-4.51,10.53h7.13c.06-2.22.31-4.35.73-6.3h0ZM48.97,32.72c.6,1.31,1.42,2.5,2.43,3.5.71-2.43,1.8-4.87,3.35-6.68-2.14.67-4.1,1.76-5.78,3.18h0ZM53.01,37.57c1.68,1.18,3.68,1.92,5.84,2.09v-10.76c-3.04.86-4.98,5.33-5.84,8.66h0ZM60.76,39.66c2.16-.17,4.16-.92,5.84-2.09-.86-3.33-2.8-7.8-5.84-8.66v10.76ZM68.21,36.23c1.01-1,1.84-2.19,2.43-3.5-1.68-1.41-3.64-2.5-5.78-3.18,1.55,1.82,2.64,4.26,3.35,6.68h0Z"/>
</svg>