<?xml version="1.0" encoding="UTF-8"?>
<svg id="Layer_1" xmlns="http://www.w3.org/2000/svg" version="1.1" viewBox="0 0 66 67.06">
  <!-- Generator: Adobe Illustrator 29.5.1, SVG Export Plug-In . SVG Version: 2.1.0 Build 141)  -->
  <defs>
    <style>
      .st0 {
        fill: #e14a25;
      }
    </style>
  </defs>
  <path class="st0" d="M63.36,49.88c.46,0,.83-.37.83-.83v-9.27c0-.46-.37-.83-.83-.83h-6.35v-10.56c1.35-.37,2.36-1.59,2.36-3.06s-1-2.7-2.36-3.06v-9.05c1.35-.37,2.36-1.59,2.36-3.06,0-1.76-1.43-3.19-3.19-3.19-1.47,0-2.7,1-3.06,2.36h-5.91c-.31-.45-.64-.88-.99-1.3-.61-.71-1.28-1.38-2-2-3.08-2.61-7.01-4.05-11.06-4.05s-7.98,1.44-11.06,4.06c-.72.61-1.39,1.28-2,2-.35.42-.68.85-.99,1.3h-5.92c-.37-1.35-1.59-2.36-3.06-2.36-1.76,0-3.19,1.43-3.19,3.19,0,1.47,1,2.7,2.36,3.06v9.05c-1.35.37-2.36,1.59-2.36,3.06s1,2.7,2.36,3.06v7H3.66c-1.02,0-1.85.83-1.85,1.85v19.81c0,1.02.83,1.85,1.85,1.85h5.18v3.31c0,1,.81,1.82,1.82,1.82h14.45c1,0,1.81-.81,1.81-1.82v-19.13c0-.98-.79-1.77-1.77-1.77h-5.35l-3.57-3.58c-.75-.76-1.47-1.48-2.11-2.11h0c-.07-.07-.15-.12-.23-.16-.02,0-.05-.02-.08-.03-.07-.03-.14-.04-.22-.04-.02,0-.03,0-.05,0h-2.6v-7c1.35-.37,2.36-1.59,2.36-3.06s-1-2.7-2.36-3.06v-9.05c1.09-.29,1.94-1.15,2.24-2.24h4.92c-1.34,2.48-2.07,5.26-2.07,8.12,0,9.44,7.68,17.13,17.13,17.13s17.13-7.68,17.13-17.13c0-2.86-.73-5.64-2.07-8.12h4.91c.29,1.09,1.15,1.94,2.24,2.24v9.05c-1.37.36-2.37,1.59-2.37,3.06s1,2.7,2.36,3.06v10.57h-22.69c-.46,0-.83.37-.83.83v9.27c0,.46.37.83.83.83h4.96v3.13h-4.96c-.46,0-.83.37-.83.83v9.27c0,.46.37.83.83.83h30.69c.46,0,.83-.37.83-.83v-9.27c0-.46-.37-.83-.83-.83h-4.96v-3.13h4.96ZM25.26,43.09v19.12c0,.09-.07.16-.15.16h-14.45c-.09,0-.16-.07-.16-.16v-3.31h8.18c1.02,0,1.85-.83,1.85-1.85v-14.08h4.63c.06,0,.1.06.1.12ZM17.7,41.55h-3.13c-.07,0-.1-.03-.14-.06-.03-.02-.06-.07-.06-.14v-3.15c.23.23.46.46.69.7l2.64,2.65ZM13.4,42.78c.32.27.74.42,1.17.42h4.29v13.85c0,.11-.09.2-.19.2H3.67c-.11,0-.19-.09-.19-.2v-19.81c0-.11.09-.19.19-.19h9.06v4.31c-.01.56.25,1.1.67,1.42ZM11.65,25.33c0,.85-.69,1.53-1.53,1.53s-1.53-.69-1.53-1.53.69-1.53,1.53-1.53,1.53.68,1.53,1.53ZM10.11,11.68c-.85,0-1.53-.69-1.53-1.53s.69-1.53,1.53-1.53,1.53.69,1.53,1.53-.68,1.53-1.53,1.53ZM48.59,18.27h-6.86c-.07-3.05-.54-6.01-1.36-8.53,1.16-.54,2.24-1.21,3.26-2,.47.43.92.88,1.33,1.36,2.19,2.57,3.45,5.8,3.63,9.17ZM33.16,34.57c-2,0-3.84-2.02-5.12-5.18,1.63-.57,3.36-.88,5.12-.88s3.49.3,5.12.88c-1.29,3.16-3.12,5.18-5.12,5.18ZM39.81,30.05c.87.42,1.71.92,2.5,1.5-1.44,1.06-3.06,1.88-4.82,2.4.89-1.02,1.68-2.34,2.32-3.9ZM28.83,33.94c-1.76-.52-3.39-1.34-4.83-2.41.79-.58,1.62-1.09,2.5-1.51.64,1.58,1.43,2.9,2.33,3.92ZM33.16,26.86c-1.95,0-3.87.34-5.68.98-.72-2.29-1.17-5.01-1.24-7.92h13.84c-.07,2.91-.52,5.63-1.24,7.92-1.82-.63-3.73-.98-5.68-.98ZM26.23,18.27c.07-2.84.5-5.58,1.24-7.92,1.81.64,3.73.98,5.68.98s3.87-.34,5.68-.98c.74,2.34,1.17,5.08,1.24,7.92h-13.84ZM39.81,8.17c-.28-.68-.59-1.33-.92-1.92-.43-.77-.9-1.43-1.4-2,1.74.51,3.38,1.32,4.84,2.4-.79.59-1.64,1.1-2.52,1.52ZM37.45,7.06c.3.54.58,1.12.83,1.74-1.63.57-3.37.88-5.13.88s-3.49-.31-5.12-.88c.26-.62.53-1.21.83-1.74,1.25-2.22,2.77-3.44,4.29-3.44,1.53,0,3.06,1.22,4.3,3.44ZM27.42,6.25c-.33.59-.64,1.24-.92,1.92-.89-.42-1.73-.93-2.52-1.52,1.47-1.08,3.11-1.89,4.84-2.4-.5.57-.97,1.24-1.4,2ZM21.35,9.1c.41-.48.86-.93,1.33-1.36,1.01.79,2.1,1.46,3.26,2-.81,2.53-1.28,5.48-1.36,8.53h-6.86c.18-3.37,1.44-6.6,3.63-9.17ZM17.72,19.92h6.86c.07,3.17.55,6.08,1.35,8.54-1.15.53-2.23,1.21-3.24,1.99-2.88-2.64-4.74-6.37-4.97-10.53ZM43.62,30.46c-1.01-.78-2.09-1.46-3.24-1.99.79-2.46,1.27-5.38,1.35-8.54h6.86c-.22,4.15-2.09,7.88-4.97,10.53ZM54.65,10.15c0-.85.69-1.53,1.53-1.53s1.53.69,1.53,1.53-.69,1.53-1.53,1.53c-.84,0-1.53-.68-1.53-1.53ZM54.65,25.33c0-.85.69-1.53,1.53-1.53s1.53.69,1.53,1.53-.69,1.53-1.53,1.53-1.53-.68-1.53-1.53ZM33.49,40.61h29.04v7.62h-29.04v-7.62ZM62.53,62.28h-29.04v-7.62h29.04s0,7.62,0,7.62ZM56.74,53.01h-17.46v-3.13h17.46s0,3.13,0,3.13Z"/>
  <path class="st0" d="M57.13,47.13c1.5,0,2.71-1.22,2.71-2.71s-1.22-2.71-2.71-2.71-2.71,1.22-2.71,2.71,1.21,2.71,2.71,2.71ZM57.13,43.36c.59,0,1.06.48,1.06,1.06s-.48,1.06-1.06,1.06-1.06-.48-1.06-1.06.47-1.06,1.06-1.06Z"/>
  <path class="st0" d="M49.46,47.13c1.5,0,2.71-1.22,2.71-2.71s-1.22-2.71-2.71-2.71-2.71,1.22-2.71,2.71,1.21,2.71,2.71,2.71ZM49.46,43.36c.59,0,1.06.48,1.06,1.06s-.48,1.06-1.06,1.06-1.06-.48-1.06-1.06c0-.58.47-1.06,1.06-1.06Z"/>
  <path class="st0" d="M42.85,44.42c0-.46-.37-.83-.83-.83h-4.6c-.46,0-.83.37-.83.83s.37.83.83.83h4.6c.46,0,.83-.37.83-.83Z"/>
  <path class="st0" d="M54.42,58.47c0,1.5,1.22,2.71,2.71,2.71s2.71-1.22,2.71-2.71-1.22-2.71-2.71-2.71-2.71,1.22-2.71,2.71ZM58.19,58.47c0,.59-.48,1.06-1.06,1.06s-1.06-.48-1.06-1.06.48-1.06,1.06-1.06,1.06.48,1.06,1.06Z"/>
  <path class="st0" d="M49.46,55.76c-1.5,0-2.71,1.22-2.71,2.71s1.22,2.71,2.71,2.71,2.71-1.22,2.71-2.71-1.22-2.71-2.71-2.71ZM49.46,59.53c-.59,0-1.06-.48-1.06-1.06s.48-1.06,1.06-1.06,1.06.48,1.06,1.06-.48,1.06-1.06,1.06Z"/>
  <path class="st0" d="M42.03,57.65h-4.6c-.46,0-.83.37-.83.83s.37.83.83.83h4.6c.46,0,.83-.37.83-.83s-.38-.83-.83-.83Z"/>
  <path class="st0" d="M16.19,53.01H6.14c-.46,0-.83.37-.83.83s.37.83.83.83h10.05c.46,0,.83-.37.83-.83s-.37-.83-.83-.83Z"/>
  <path class="st0" d="M5.32,49.6c0,.46.37.83.83.83h10.05c.46,0,.83-.37.83-.83s-.37-.83-.83-.83H6.14c-.45.01-.82.38-.82.83Z"/>
  <path class="st0" d="M6.14,44.54c-.46,0-.83.37-.83.83s.37.83.83.83h6.33c.46,0,.83-.37.83-.83s-.37-.83-.83-.83h-6.33Z"/>
</svg>