<svg xmlns="http://www.w3.org/2000/svg" width="63.9" height="59.199" viewBox="0 0 63.9 59.199">
  <g id="noun-hiring-1876426" transform="translate(-1 -3.4)">
    <g id="Group_16429" data-name="Group 16429">
      <g id="Group_16421" data-name="Group 16421">
        <g id="Group_16420" data-name="Group 16420">
          <path id="Path_11058" data-name="Path 11058" d="M17.5,49.7,8,59.1a3.867,3.867,0,0,1-5.6,0L2.2,59a3.984,3.984,0,0,1,0-5.7l9.5-9.5a.967.967,0,0,1,1.4,0l1.5,1.5,1.2-1.1.7.7.7.7L16,46.7l1.5,1.5A1.088,1.088,0,0,1,17.5,49.7Z" fill="#f60"/>
        </g>
      </g>
      <g id="Group_16428" data-name="Group 16428">
        <g id="Group_16422" data-name="Group 16422">
          <path id="Path_11059" data-name="Path 11059" d="M44.3,43.5A18.738,18.738,0,0,0,17.8,17C6.2,28.6,14.3,49,31.1,49A18.615,18.615,0,0,0,44.3,43.5ZM19.2,18.4A16.758,16.758,0,0,1,42.9,42.1,16.572,16.572,0,0,1,31.1,47C16.1,47,8.8,28.8,19.2,18.4Z" fill="#f60"/>
        </g>
        <g id="Group_16423" data-name="Group 16423">
          <path id="Path_11060" data-name="Path 11060" d="M31.3,32.2a8.771,8.771,0,0,0-6.8,3.3H38.1A9.1,9.1,0,0,0,31.3,32.2Z" fill="#f60"/>
        </g>
        <g id="Group_16424" data-name="Group 16424">
          <path id="Path_11061" data-name="Path 11061" d="M41,20.3a14.154,14.154,0,0,0-19.9,0c-8.8,8.8-2.6,24,9.9,24a14.1,14.1,0,0,0,10-24ZM39.9,37.5H22.6a1.027,1.027,0,0,1-.9-1.5,11.457,11.457,0,0,1,5.8-5.1,4.428,4.428,0,0,1-1.2-1.5,5.693,5.693,0,0,1,4.9-8.5A5.6,5.6,0,0,1,36,29.5a5.263,5.263,0,0,1-1.2,1.4,11.415,11.415,0,0,1,5.9,5.2A.874.874,0,0,1,39.9,37.5Z" fill="#f60"/>
        </g>
        <g id="Group_16425" data-name="Group 16425">
          <path id="Path_11062" data-name="Path 11062" d="M34.4,28.5a3.636,3.636,0,0,0-3.1-5.6,3.686,3.686,0,1,0,3.1,5.6Z" fill="#f60"/>
        </g>
        <g id="Group_16426" data-name="Group 16426">
          <path id="Path_11063" data-name="Path 11063" d="M53.9,4V14.6H64.4Z" fill="#f60"/>
        </g>
        <g id="Group_16427" data-name="Group 16427">
          <path id="Path_11064" data-name="Path 11064" d="M52.9,16.6a.945.945,0,0,1-1-1V3.4H21a.945.945,0,0,0-1,1v8.3a20.719,20.719,0,1,1-.1,35.1V61.6a1,1,0,0,0,1,1h43a1,1,0,0,0,1-1v-45h-12Zm2.6,5.3h2a1,1,0,0,1,0,2h-2a1,1,0,0,1,0-2Zm0,6.4h2a1,1,0,0,1,0,2h-2a1,1,0,0,1,0-2Zm0,6.3h2a1,1,0,0,1,0,2h-2a.945.945,0,0,1-1-1A1,1,0,0,1,55.5,34.6Zm0,6.4h2a1,1,0,0,1,0,2h-2a.945.945,0,0,1-1-1A1,1,0,0,1,55.5,41Zm0,6.4h2a1,1,0,0,1,0,2h-2a.945.945,0,0,1-1-1A1,1,0,0,1,55.5,47.4Zm3.8,8.5H26.8a1,1,0,0,1,0-2H59.3a.945.945,0,0,1,1,1A1,1,0,0,1,59.3,55.9Z" fill="#f60"/>
        </g>
      </g>
    </g>
  </g>
</svg>
