<svg xmlns="http://www.w3.org/2000/svg" width="32.792" height="38.809" viewBox="0 0 32.792 38.809">
  <g id="noun-integrity-5670758" transform="translate(-9.573 -2.523)">
    <path id="Path_11135" data-name="Path 11135" d="M33.2,33.548a1.806,1.806,0,0,0,.222-.786,1.863,1.863,0,0,0,.546-.074,1.825,1.825,0,0,0,1.278-2.156,1.826,1.826,0,0,0,1.2-1.883l.978-.408.07.179a1.4,1.4,0,0,0,1.3.892,1.385,1.385,0,0,0,.5-.095l1.574-.61a1.4,1.4,0,0,0,.8-1.807l-3.17-8.178a1.4,1.4,0,0,0-1.807-.8l-1.574.61a1.4,1.4,0,0,0-.8,1.807l.183.471-.731.392c-.409.212-.853.05-1.6-.256a4.491,4.491,0,0,0-4.488.1,4.481,4.481,0,0,0-3.534-.272c-.791.185-1.26.277-1.728.014l-.045-.023-.841-.388.193-.436a1.4,1.4,0,0,0-.713-1.842l-1.544-.683a1.4,1.4,0,0,0-1.842.713l-3.546,8.022a1.4,1.4,0,0,0,.713,1.842l1.544.683a1.4,1.4,0,0,0,1.842-.713l.1-.217c.53.235.687.3.756.327.111.044.174.376.223.644a4.06,4.06,0,0,0,.165.666L19.048,30a1.87,1.87,0,0,0,1.486,2.747,1.87,1.87,0,0,0,2.6,1.8,1.865,1.865,0,0,0,2.175.829,1.874,1.874,0,0,0,3.1.378l.3.171a1.776,1.776,0,0,0,.888.238,1.836,1.836,0,0,0,.5-.069,1.857,1.857,0,0,0,1.12-.887,1.816,1.816,0,0,0,.218-.717,1.842,1.842,0,0,0,1.78-.944ZM35.578,19.6l1.574-.61a.141.141,0,0,1,.05-.009.153.153,0,0,1,.06.013.146.146,0,0,1,.077.079l3.17,8.178a.148.148,0,0,1-.083.188l-1.574.61a.147.147,0,0,1-.188-.083L35.5,19.789A.147.147,0,0,1,35.578,19.6ZM31.7,22.007a3.009,3.009,0,0,0,2.659.2l.6-.323,2.01,5.185-1.052.439a1.866,1.866,0,0,0-.406-.312l-4.187-2.386c-1.161-.662-2.434-.146-3.558.308-1.462.592-2.466.926-3.419.039a14.794,14.794,0,0,0,2.68-2.1,7.046,7.046,0,0,1,1.018-.863A3.272,3.272,0,0,1,31.7,22.007Zm-14.851,5.42-1.544-.683a.147.147,0,0,1-.074-.191l3.546-8.022h0a.145.145,0,0,1,.081-.076.15.15,0,0,1,.054-.01.137.137,0,0,1,.056.012l1.544.683a.147.147,0,0,1,.074.191l-3.546,8.022A.147.147,0,0,1,16.853,27.427Zm3.552,4a.624.624,0,0,1-.255-.84l.769-1.437a.622.622,0,0,1,.841-.254.63.63,0,0,1,.279.786l-.985,1.7A.625.625,0,0,1,20.405,31.428Zm1.705,1.944a.621.621,0,0,1-.255-.84l1.228-2.158a.619.619,0,0,1,.973.6l-1.1,2.138A.624.624,0,0,1,22.11,33.372Zm2.334.769a.624.624,0,0,1-.326-.557l1.043-2.021a.618.618,0,0,1,1.03.552l-.971,1.866A.621.621,0,0,1,24.445,34.142Zm2.713.991a.616.616,0,0,1-.472-.045.628.628,0,0,1-.325-.581l.936-1.8a.628.628,0,0,1,.712-.093.608.608,0,0,1,.2.176.627.627,0,0,1,.05.663l-.737,1.378A.618.618,0,0,1,27.158,35.132Zm2.946-.527a.6.6,0,0,1-.361.285.546.546,0,0,1-.423-.049l-.291-.167.337-.631a1.866,1.866,0,0,0,.166-.438s.311.185.339.2A.592.592,0,0,1,30.1,34.606Zm1.648-1.382a.57.57,0,0,1-.439-.048l-2.175-1.231a1.871,1.871,0,0,0-1.816-.615,1.874,1.874,0,0,0-2.135-1.142,1.871,1.871,0,0,0-1.9-1.175,1.87,1.87,0,0,0-2.9-1.1,1.522,1.522,0,0,0-.9-1.109c-.062-.024-.239-.1-.7-.306l2.244-5.078.8.37a3.45,3.45,0,0,0,2.6.1,3.8,3.8,0,0,1,2.1-.087c-.132.119-.263.244-.394.376a14.123,14.123,0,0,1-2.926,2.206A.771.771,0,0,0,23,25.522c1.7,2.193,3.75,1.365,5.245.76.984-.4,1.834-.742,2.468-.381L34.9,28.287a.611.611,0,0,1,.249.265h0a.575.575,0,0,1-.01.533.584.584,0,0,1-.355.281.564.564,0,0,1-.435-.048h0c-.885-.5-1.888-1.058-2.876-1.623a.626.626,0,1,0-.622,1.086c.992.568,2,1.131,2.885,1.628h0a.593.593,0,0,1,.236.8.588.588,0,0,1-.794.23L29.39,29.307a.626.626,0,1,0-.614,1.091l3.093,1.749a.593.593,0,0,1,.236.8A.586.586,0,0,1,31.752,33.224ZM19.878,19.707a.525.525,0,1,1-.5-.548A.524.524,0,0,1,19.878,19.707ZM36.19,20.2a.525.525,0,1,1,.525.524A.525.525,0,0,1,36.19,20.2ZM41.5,30.564a.626.626,0,0,0-1.135.371c.025,2.368-2.541,4.23-4.274,4.922l-.172-.643a.626.626,0,0,0-1.093-.23l-2.724,3.4a.626.626,0,0,0,.224.959l4.152,1.929a.626.626,0,0,0,.868-.73l-.175-.654A7.663,7.663,0,0,0,42,35.346,5.128,5.128,0,0,0,41.5,30.564Zm-.673,4.361a6.524,6.524,0,0,1-4.578,3.936.626.626,0,0,0-.455.711l-2.215-1.03,1.452-1.81.025.094a.627.627,0,0,0,.767.443,9.1,9.1,0,0,0,5.284-4.148A4.6,4.6,0,0,1,40.826,34.925ZM11.32,21.988a.626.626,0,0,0,1-.653c-.637-2.281,1.36-4.743,2.854-5.861l.333.577a.626.626,0,0,0,1.115-.061L18.375,12a.626.626,0,0,0-.465-.869l-4.51-.789a.626.626,0,0,0-.65.929l.338.586A7.664,7.664,0,0,0,9.595,17.5,5.13,5.13,0,0,0,11.32,21.988ZM10.842,17.6a6.526,6.526,0,0,1,3.4-4.987.626.626,0,0,0,.256-.8l2.406.421-.934,2.124-.049-.084a.626.626,0,0,0-.855-.229,9.1,9.1,0,0,0-4.031,5.374A4.6,4.6,0,0,1,10.842,17.6Zm10.54-7.771a3.44,3.44,0,0,1,.327.733,3.419,3.419,0,0,1-.057.8c-.015.115-.03.242-.047.386a1.931,1.931,0,0,0,1.165,2.018l.247.1-1.6,3.442a.626.626,0,0,0,.675.881l1.725-.3.88,1.514a.626.626,0,0,0,.541.311h.029a.627.627,0,0,0,.539-.361l1.647-3.537a1.7,1.7,0,0,1,.42-.087,3.414,3.414,0,0,1,.778.195l.068.021,1.171,2.718a.626.626,0,0,0,.528.377l.047,0a.626.626,0,0,0,.532-.3l.924-1.488,1.716.352a.626.626,0,0,0,.7-.861l-1.3-3.016a1.929,1.929,0,0,0,1.1-1.987c-.017-.143-.033-.271-.047-.386a3.419,3.419,0,0,1-.057-.8,3.44,3.44,0,0,1,.327-.733c.052-.1.111-.217.176-.346a1.931,1.931,0,0,0-.4-2.295l-.284-.265a3.416,3.416,0,0,1-.558-.576,3.406,3.406,0,0,1-.22-.772c-.026-.113-.054-.238-.087-.378A1.931,1.931,0,0,0,31.2,3.7l-.388-.02a3.446,3.446,0,0,1-.8-.083,3.433,3.433,0,0,1-.665-.449l-.31-.234h0a1.931,1.931,0,0,0-2.33,0l-.31.234a3.412,3.412,0,0,1-.665.449,3.415,3.415,0,0,1-.8.083l-.388.02a1.931,1.931,0,0,0-1.785,1.5c-.033.141-.061.266-.087.379a3.43,3.43,0,0,1-.22.771,3.412,3.412,0,0,1-.558.577l-.284.265a1.93,1.93,0,0,0-.4,2.295C21.271,9.613,21.33,9.728,21.382,9.831Zm3.794,7.912-.5-.855a.626.626,0,0,0-.649-.3l-.974.17,1.025-2.2c.067.1.144.217.24.365.063.1.132.205.212.326a1.929,1.929,0,0,0,1.4.869Zm6.567-1.794a.626.626,0,0,0-.658.283l-.521.84-.439-1.02a1.937,1.937,0,0,0,1.086-.806l.212-.326a3.418,3.418,0,0,1,.471-.65l.007-.006.811,1.882ZM22.467,8.1l.279-.26a2.75,2.75,0,0,0,1.147-1.987c.025-.111.053-.234.086-.372a.679.679,0,0,1,.636-.533L25,4.931a2.751,2.751,0,0,0,2.157-.785l.3-.23a.679.679,0,0,1,.83,0l.3.23a2.753,2.753,0,0,0,2.157.785l.381.02a.679.679,0,0,1,.636.533c.032.138.06.261.086.372A2.752,2.752,0,0,0,33,7.843l.279.26a.679.679,0,0,1,.144.817l-.173.34a2.75,2.75,0,0,0-.4,2.26c.014.113.03.238.047.379a.678.678,0,0,1-.415.719l-.351.149a2.754,2.754,0,0,0-1.758,1.475l-.208.32a.679.679,0,0,1-.78.284l-.365-.112a3.991,3.991,0,0,0-1.147-.251,3.991,3.991,0,0,0-1.147.251l-.365.112a.679.679,0,0,1-.78-.284c-.078-.119-.146-.224-.207-.32a2.75,2.75,0,0,0-1.758-1.475l-.351-.149a.68.68,0,0,1-.415-.719c.017-.141.032-.266.047-.378a2.753,2.753,0,0,0-.4-2.261l-.173-.34A.681.681,0,0,1,22.467,8.1Zm5.405,5.538a4.316,4.316,0,1,0-4.316-4.316A4.321,4.321,0,0,0,27.872,13.641Zm0-7.38a3.064,3.064,0,1,1-3.064,3.064A3.067,3.067,0,0,1,27.872,6.261ZM26.6,11.049,25.436,9.886A.626.626,0,0,1,26.322,9l.741.741L29.444,7.58a.626.626,0,0,1,.841.927l-2.823,2.562a.627.627,0,0,1-.864-.02ZM19.973,39.332h-.006c-2.368.023-4.23-2.541-4.923-4.274l.644-.172a.626.626,0,0,0,.23-1.093l-3.4-2.724a.626.626,0,0,0-.959.224L9.632,35.445a.626.626,0,0,0,.73.868l.654-.175a7.663,7.663,0,0,0,4.541,4.834,5.951,5.951,0,0,0,2,.36,4.725,4.725,0,0,0,2.78-.865.626.626,0,0,0-.365-1.135Zm-4,.461a6.524,6.524,0,0,1-3.936-4.578.627.627,0,0,0-.6-.464.6.6,0,0,0-.107.009l1.03-2.215L14.17,34l-.094.025a.627.627,0,0,0-.443.767,9.1,9.1,0,0,0,4.148,5.284A4.615,4.615,0,0,1,15.977,39.793Z" fill="#f60"/>
  </g>
</svg>
