<svg xmlns="http://www.w3.org/2000/svg" width="82.02" height="90" viewBox="0 0 82.02 90">
  <path id="Path_11056" data-name="Path 11056" d="M85.4,39.383V59.822c0,1.924-1.369,3.581-3.581,4.7A16.638,16.638,0,0,1,74.454,66.1a17.137,17.137,0,0,1-7.434-1.554c-2.227-1.108-3.615-2.745-3.615-4.671a1.024,1.024,0,0,1,.006-.136l.1-20.163c0-.064-.005-.128-.005-.192,0-1.923,1.368-3.581,3.58-4.705a18.039,18.039,0,0,1,14.73,0c2.2,1.117,3.562,2.76,3.58,4.666v.039ZM82.5,57.3q-.322.2-.677.377a18.039,18.039,0,0,1-14.73,0q-.4-.206-.773-.436l-.02,2.511,0,.122c0,.725.766,1.463,1.994,2.073A14.212,14.212,0,0,0,74.454,63.2a13.735,13.735,0,0,0,6.061-1.254c1.224-.622,1.981-1.378,1.981-2.119V57.3Zm0-6.744c-.215.132-.441.257-.676.377a18.041,18.041,0,0,1-14.731,0c-.258-.131-.5-.27-.739-.415l-.01,2a1.444,1.444,0,0,1,.073.454c0,.741.757,1.5,1.981,2.118a15.261,15.261,0,0,0,12.121,0c1.224-.622,1.981-1.377,1.981-2.118V50.558ZM66.374,45.9a1.482,1.482,0,0,1,.039.335c0,.741.757,1.5,1.98,2.119a15.274,15.274,0,0,0,12.122,0c1.224-.622,1.981-1.378,1.981-2.119V43.71c-.215.132-.441.257-.677.377a18.039,18.039,0,0,1-14.73,0q-.368-.187-.7-.393l-.011,2.2ZM90.835,73.083H75.408a4.975,4.975,0,0,0-4.926,4.927V94.786a5.071,5.071,0,0,0,.549-.2,4.818,4.818,0,0,0,1.634-1.14l.072-.073L89.862,74.868h0a4.127,4.127,0,0,0,.855-1.395c.046-.126.086-.255.121-.387ZM34.265,18.462H32.813v-2.9H82.645v2.9Zm0,8.973H32.813v-2.9H82.645v2.9Zm0,8.973H32.813V33.5H59.181v2.9Zm0,8.972H32.813v-2.9H59.181v2.9Zm3.7,35.979-13.4.022.014,8.762h.006A4.858,4.858,0,0,0,29.441,95H67.578V78.01a7.879,7.879,0,0,1,7.83-7.83h15.6V9.927A5.051,5.051,0,0,0,89.62,6.406,4.593,4.593,0,0,0,86.293,5H29.372a4.975,4.975,0,0,0-4.926,4.927H24.44l.091,52.794L38.383,62.7l.142-6.413a1.448,1.448,0,0,1,2.287-1.206L63.542,71.2a1.478,1.478,0,0,1,.369.386,1.445,1.445,0,0,1-.414,2L40.108,88.975a1.445,1.445,0,0,1-2.281-1.209l.141-6.407ZM8.988,78.515l.286-12.877,13.805-.023h.02l16.676-.027a1.446,1.446,0,0,0,1.468-1.418l.115-5.155L60.139,72.332,40.779,85.073l.114-5.163a1.446,1.446,0,0,0-1.446-1.446l-16.331.027h0l-14.125.024ZM66.413,39.383c0,.741.757,1.5,1.98,2.118a15.274,15.274,0,0,0,12.122,0c1.224-.622,1.981-1.377,1.981-2.118s-.757-1.5-1.981-2.119a15.274,15.274,0,0,0-12.122,0C67.17,37.886,66.413,38.641,66.413,39.383Z" transform="translate(-8.988 -5)" fill="#f60" fill-rule="evenodd"/>
</svg>
