<svg xmlns="http://www.w3.org/2000/svg" width="36.369" height="39.664" viewBox="0 0 36.369 39.664">
  <g id="noun-data-migration-5694370" transform="translate(-8.737 -5)">
    <path id="Path_11111" data-name="Path 11111" d="M33.722,20.436c0,.309.313.62.82.877a6.319,6.319,0,0,0,5.018,0c.506-.257.82-.57.82-.877s-.314-.62-.82-.877a6.323,6.323,0,0,0-5.018,0C34.035,19.817,33.722,20.13,33.722,20.436ZM9.948,36.637l5.848-.01h0l6.764-.011a.6.6,0,0,1,.6.6l-.047,2.137,8.015-5.276-7.776-5.513L23.3,30.7a.6.6,0,0,1-.608.587l-6.9.011h-.008l-5.715.009-.119,5.333Zm12,1.177-.059,2.653a.6.6,0,0,0,.945.5L32.515,34.6a.6.6,0,0,0,.171-.829.62.62,0,0,0-.152-.16l-9.411-6.672a.6.6,0,0,0-.947.5l-.058,2.657-5.735.009L16.345,8.242h0a2.061,2.061,0,0,1,2.04-2.04H41.951a1.9,1.9,0,0,1,1.377.582A2.089,2.089,0,0,1,43.9,8.242V33.186H37.446A3.261,3.261,0,0,0,34.2,36.428v7.034H18.417a2.01,2.01,0,0,1-2.011-2.011h0L16.4,37.824l5.55-.009Zm-6.746.011-5.875.01a.6.6,0,0,1-.587-.61L8.883,30.7a.6.6,0,0,1,.6-.587l5.7-.01L15.148,8.241h0A3.261,3.261,0,0,1,18.387,5H41.951a3.09,3.09,0,0,1,2.237.953,3.286,3.286,0,0,1,.919,2.289V33.787a3.393,3.393,0,0,1-.2,1.17,2.909,2.909,0,0,1-.6.986h0L37.219,43.6l-.03.035a3.194,3.194,0,0,1-1.081.758,3.309,3.309,0,0,1-1.3.27H18.417A3.214,3.214,0,0,1,15.2,41.451h0Zm5.213-14.906H30.728v-1.2H19.812v1.2Zm0-3.714H30.728V18H19.812v1.2Zm0-3.715H40.442v-1.2H19.812v1.2Zm0-3.715H40.442v-1.2H19.812v1.2Zm23.42,22.613H37.446a2.06,2.06,0,0,0-2.04,2.04v6.945a2.059,2.059,0,0,0,.227-.083,1.987,1.987,0,0,0,.676-.472l.03-.03,7.09-7.661h0a1.706,1.706,0,0,0,.353-.578q.029-.078.05-.16ZM33.706,23.133a.6.6,0,0,1,.016.139c0,.308.313.62.82.877a6.323,6.323,0,0,0,5.018,0c.506-.257.82-.57.82-.877V22.228q-.132.082-.28.156a7.468,7.468,0,0,1-6.1,0c-.1-.052-.2-.106-.291-.163Zm6.675,1.93q-.132.082-.28.156a7.468,7.468,0,0,1-6.1,0c-.107-.054-.209-.111-.306-.172l0,.829a.6.6,0,0,1,.03.188c0,.308.313.62.82.877a6.323,6.323,0,0,0,5.018,0c.506-.258.82-.571.82-.877Zm0,2.792q-.132.081-.28.156a7.471,7.471,0,0,1-6.1,0c-.112-.057-.22-.117-.32-.181l-.005,1.039v.051c0,.3.317.606.825.858a5.886,5.886,0,0,0,2.547.517,5.687,5.687,0,0,0,2.509-.52c.506-.257.82-.57.82-.877V27.855Zm1.2-7.419V28.9A2.308,2.308,0,0,1,40.1,30.846a6.885,6.885,0,0,1-3.049.651,7.1,7.1,0,0,1-3.077-.643,2.292,2.292,0,0,1-1.5-1.933.351.351,0,0,1,0-.057l.044-8.347v-.08A2.31,2.31,0,0,1,34,18.489a7.468,7.468,0,0,1,6.1,0,2.317,2.317,0,0,1,1.482,1.932Z" transform="translate(0 0)" fill="#f60" fill-rule="evenodd"/>
  </g>
</svg>
