<svg xmlns="http://www.w3.org/2000/svg" width="60" height="40" viewBox="0 0 60 40">
  <g id="noun-payment-6258094" transform="translate(-2 -12)">
    <path id="Path_11099" data-name="Path 11099" d="M57,12H12a5.008,5.008,0,0,0-4.9,4H7a5.006,5.006,0,0,0-5,5V47a5.006,5.006,0,0,0,5,5H53a5.006,5.006,0,0,0,5-5v-.1A5.008,5.008,0,0,0,62,42V17A5.006,5.006,0,0,0,57,12ZM7,18H53a3,3,0,0,1,3,3v1H4V21A3,3,0,0,1,7,18ZM4,24H56v5H4ZM56,47a3,3,0,0,1-3,3H7a3,3,0,0,1-3-3V31H56Zm4-5a3,3,0,0,1-2,2.816V21a5.006,5.006,0,0,0-5-5H9.184A3,3,0,0,1,12,14H57a3,3,0,0,1,3,3ZM47.38,36a4.988,4.988,0,0,0-2,.428,5,5,0,1,0,0,9.144,5,5,0,1,0,2-9.572Zm-7,5a3,3,0,0,1,3-3,3,3,0,0,1,1.5,5.593l0,0A2.994,2.994,0,0,1,40.38,41Zm7,3h0c.018-.024.031-.052.049-.077a5.013,5.013,0,0,0,.334-.528c.039-.071.072-.143.107-.216a5,5,0,0,0,.2-.459c.03-.082.059-.164.085-.248a4.972,4.972,0,0,0,.124-.5c.016-.077.035-.153.047-.231a4.566,4.566,0,0,0,0-1.492c-.012-.078-.031-.154-.047-.231a4.967,4.967,0,0,0-.124-.5c-.026-.084-.055-.166-.085-.248-.058-.157-.124-.309-.2-.459-.035-.073-.068-.146-.107-.217a5.01,5.01,0,0,0-.331-.523c-.019-.026-.032-.056-.052-.081h0a3,3,0,1,1,0,6ZM18,41a1,1,0,0,1-1,1H8a1,1,0,0,1,0-2h9A1,1,0,0,1,18,41Zm7,0a1,1,0,0,1-1,1H20a1,1,0,0,1,0-2h4A1,1,0,0,1,25,41Zm6,0a1,1,0,0,1-1,1H27a1,1,0,0,1,0-2h3A1,1,0,0,1,31,41Z" fill="#f60"/>
  </g>
</svg>
