<svg xmlns="http://www.w3.org/2000/svg" width="85.706" height="85.699" viewBox="0 0 85.706 85.699">
  <g id="Group_16419" data-name="Group 16419" transform="translate(15010.855 16665)">
    <path id="Path_11057" data-name="Path 11057" d="M54.658,7.151H45.337a1.638,1.638,0,0,0-1.186.564,3.376,3.376,0,0,0-.808,1.775L42.5,14.648h0a1.073,1.073,0,0,1-.81.87,35.408,35.408,0,0,0-10.2,4.229h0A1.071,1.071,0,0,1,30.3,19.7L26.06,16.648a3.382,3.382,0,0,0-1.825-.684,1.645,1.645,0,0,0-1.24.442L16.4,23a1.645,1.645,0,0,0-.442,1.24,3.382,3.382,0,0,0,.684,1.825l3.018,4.2a1.074,1.074,0,0,1,.08,1.232,35.4,35.4,0,0,0-4.215,10.14,1.072,1.072,0,0,1-.884.869l-5.157.844a3.372,3.372,0,0,0-1.775.808,1.64,1.64,0,0,0-.564,1.186v9.322a1.64,1.64,0,0,0,.564,1.186,3.372,3.372,0,0,0,1.775.808l5.157.844h0a1.071,1.071,0,0,1,.87.81,35.408,35.408,0,0,0,4.229,10.2h0a1.073,1.073,0,0,1-.045,1.185l-3.052,4.245a3.379,3.379,0,0,0-.684,1.825A1.645,1.645,0,0,0,16.4,77L23,83.594a1.641,1.641,0,0,0,1.24.441,3.372,3.372,0,0,0,1.825-.683l4.2-3.018a1.072,1.072,0,0,1,1.232-.08,35.4,35.4,0,0,0,10.14,4.215,1.072,1.072,0,0,1,.869.884l.844,5.157a3.368,3.368,0,0,0,.808,1.775,1.642,1.642,0,0,0,1.186.564h9.321a1.641,1.641,0,0,0,1.187-.564,3.376,3.376,0,0,0,.808-1.775l.844-5.157h0a1.071,1.071,0,0,1,.81-.87,35.408,35.408,0,0,0,10.2-4.229h0A1.069,1.069,0,0,1,69.7,80.3l4.245,3.051a3.363,3.363,0,0,0,1.825.684A1.641,1.641,0,0,0,77,83.594L83.592,77a1.641,1.641,0,0,0,.441-1.24,3.369,3.369,0,0,0-.683-1.825l-3.018-4.2a1.072,1.072,0,0,1-.08-1.232,35.4,35.4,0,0,0,4.215-10.14,1.071,1.071,0,0,1,.884-.869l5.157-.844a3.376,3.376,0,0,0,1.775-.808,1.644,1.644,0,0,0,.568-1.186V45.339a1.644,1.644,0,0,0-.568-1.186,3.376,3.376,0,0,0-1.775-.808L85.351,42.5h0a1.071,1.071,0,0,1-.87-.81,35.408,35.408,0,0,0-4.229-10.2h0a1.071,1.071,0,0,1,.046-1.184l3.052-4.245a3.372,3.372,0,0,0,.683-1.825A1.641,1.641,0,0,0,83.592,23L77,16.406a1.645,1.645,0,0,0-1.24-.442,3.379,3.379,0,0,0-1.825.684l-4.2,3.018a1.072,1.072,0,0,1-1.231.08,35.4,35.4,0,0,0-10.14-4.215,1.071,1.071,0,0,1-.869-.883L56.653,9.49a3.376,3.376,0,0,0-.808-1.775,1.641,1.641,0,0,0-1.187-.564Zm13,25.191A24.971,24.971,0,1,1,50,25.028a24.971,24.971,0,0,1,17.658,7.314ZM50,22.877a27.123,27.123,0,1,1-19.179,7.944A27.123,27.123,0,0,1,50,22.877Zm-9.389,37.88a1.076,1.076,0,1,1,0-2.151h6.552a1.076,1.076,0,0,1,0,2.151Zm0-4.212a1.076,1.076,0,1,1,0-2.151h6.552a1.076,1.076,0,0,1,0,2.151Zm12.7-19.9V46.53L50.76,43.978a1.076,1.076,0,0,0-1.521,0L46.686,46.53V36.646Zm10.043,0V63.354H36.644V36.646h7.891v12.48h0a1.076,1.076,0,0,0,1.836.761L50,46.26l3.618,3.618a1.076,1.076,0,0,0,1.845-.752V36.646Zm-27.786-2.15H64.427A1.075,1.075,0,0,1,65.5,35.57V64.429A1.076,1.076,0,0,1,64.424,65.5H35.568a1.075,1.075,0,0,1-1.075-1.076V35.57A1.075,1.075,0,0,1,35.568,34.495Z" transform="translate(-15018 -16672.15)" fill="#f60" fill-rule="evenodd"/>
  </g>
</svg>
