<svg xmlns="http://www.w3.org/2000/svg" width="81.22" height="97.027" viewBox="0 0 81.22 97.027">
  <g id="noun-security-1002240" transform="translate(-9.387 -1.471)">
    <path id="Path_11078" data-name="Path 11078" d="M49.18,98.36a2.5,2.5,0,0,0,1.64,0C91.6,84.23,91,50.59,90.49,26c-.05-2.68-.1-5.2-.1-7.65a2.5,2.5,0,0,0-2.5-2.5c-15.08,0-26.56-4.34-36.15-13.67a2.5,2.5,0,0,0-3.49,0C38.66,11.5,27.18,15.85,12.1,15.85a2.5,2.5,0,0,0-2.5,2.5c0,2.45,0,5-.1,7.65C9,50.59,8.4,84.22,49.18,98.36ZM14.51,26.12c0-1.82.07-3.57.09-5.29C29,20.4,40.33,16.09,50,7.42c9.67,8.67,21,13,35.41,13.42,0,1.71.05,3.47.09,5.29.46,24.13,1,54.12-35.5,67.23C13.48,80.24,14,50.25,14.51,26.12Zm27.57,37.8a21.76,21.76,0,0,0,15.86,0h0a4,4,0,0,0,2.35-5.14L57.16,50a9.37,9.37,0,1,0-14.32,0l-3.12,8.79a4,4,0,0,0,2.35,5.13ZM47.3,47.37a4.37,4.37,0,1,1,5.42,0,2.5,2.5,0,0,0-.8,2.79l3.34,9.4a16.76,16.76,0,0,1-10.51,0l3.34-9.4a2.5,2.5,0,0,0-.8-2.79Z" fill="#f60"/>
  </g>
</svg>
