<svg xmlns="http://www.w3.org/2000/svg" width="41.504" height="48.82" viewBox="0 0 41.504 48.82">
  <g id="noun-policy-3324779" transform="translate(-11.248 -7.59)">
    <g id="Policy">
      <path id="Path_11055" data-name="Path 11055" d="M52.62,15.12a1,1,0,0,0-1.03-.95c-4.07.07-12.12-.61-18.94-6.34a1,1,0,0,0-1.3,0c-6.82,5.73-14.87,6.41-18.94,6.34a1,1,0,0,0-1.03.95c-.39,10.07-.17,22.84,4.21,28.84C20.17,50.26,29.76,55.61,32,56.41c2.24-.81,11.83-6.16,16.41-12.45C52.79,37.96,53.01,25.19,52.62,15.12ZM40.82,26.99,30.64,38.17a1.539,1.539,0,0,1-1.09.49h-.02a1.483,1.483,0,0,1-1.07-.46l-5.25-5.36a1.5,1.5,0,0,1,2.15-2.1l4.13,4.23,9.11-10a1.5,1.5,0,1,1,2.22,2.02Z" fill="#f60"/>
    </g>
  </g>
</svg>
