<?xml version="1.0" encoding="UTF-8"?><svg id="Layer_2" xmlns="http://www.w3.org/2000/svg" viewBox="0 0 25.1 27.53"><defs><style>.cls-1{stroke-width:0px;}.cls-1,.cls-2{fill:#f16823;}.cls-3{fill:none;}.cls-3,.cls-4,.cls-2{stroke:#fff;stroke-miterlimit:10;}.cls-4{fill:#fff;}.cls-4,.cls-2{stroke-width:.75px;}</style></defs><g id="Layer_1-2"><path class="cls-1" d="m0,4.01L12.87,0l12.23,4.01v7.08c0,5.84-3.41,11.32-9.13,14.69l-2.97,1.74-4.52-2.58C3.17,21.9,0,16.87,0,11.5v-7.49Z"/><path class="cls-2" d="m2.01,5.31L12.89,1.81l10.33,3.5v6.17c0,5.1-2.88,9.87-7.72,12.81l-2.51,1.52-3.82-2.25c-4.49-2.65-7.17-7.04-7.17-11.72v-6.53Z"/><rect class="cls-3" x="8.88" y="11.76" width="7.33" height="5.16" rx=".95" ry=".95"/><path class="cls-3" d="m10.19,11.76v-2.17c0-.77.76-1.4,1.7-1.4h1.22c.96,0,1.74.64,1.74,1.43v2.14"/><rect class="cls-4" x="12.03" y="13.95" width="1.03" height=".78" rx=".14" ry=".14"/></g></svg>